<svg width="433" height="290" viewBox="0 0 433 290" fill="none" xmlns="http://www.w3.org/2000/svg">
<rect x="2.5" y="17.5" width="319" height="261" rx="28.5" stroke="#1976D2" stroke-width="5"/>
<path d="M59.2164 151.523C74.8398 151.523 87.5051 138.87 87.5051 123.261C87.5051 107.653 74.8398 95 59.2164 95C43.593 95 30.9277 107.653 30.9277 123.261C30.9277 138.87 43.593 151.523 59.2164 151.523Z" fill="#1976D2"/>
<path d="M24 193.627C24 174.196 39.7666 158.444 59.2165 158.444C78.6664 158.444 94.433 174.196 94.433 193.627V236.884C94.433 238.158 93.3996 239.191 92.1237 239.191H26.3093C25.0334 239.191 24 238.158 24 236.884V193.627Z" fill="#1976D2"/>
<rect x="75" y="202" width="37" height="54" rx="7" fill="white" stroke="#1976D2" stroke-width="6"/>
<rect x="82" y="195" width="24" height="13" rx="6.5" fill="#1976D2"/>
<path d="M83 213H104" stroke="#1976D2" stroke-width="3" stroke-linecap="round"/>
<path d="M83 219H104" stroke="#19D263" stroke-width="3" stroke-linecap="round"/>
<path d="M83 225H104" stroke="#19D263" stroke-width="3" stroke-linecap="round"/>
<path d="M83 231H104" stroke="#1976D2" stroke-width="3" stroke-linecap="round"/>
<path d="M83 237H104" stroke="#19D263" stroke-width="3" stroke-linecap="round"/>
<path d="M172.675 79.6284C185.84 79.6284 196.512 68.9664 196.512 55.8142C196.512 42.662 185.84 32 172.675 32C159.51 32 148.838 42.662 148.838 55.8142C148.838 68.9664 159.51 79.6284 172.675 79.6284Z" fill="#90CAF9"/>
<path d="M143 115.107C143 98.7335 156.286 85.4604 172.675 85.4604C189.064 85.4604 202.35 98.7335 202.35 115.107V151.557C202.35 152.631 201.479 153.501 200.404 153.501H144.946C143.871 153.501 143 152.631 143 151.557V115.107Z" fill="#90CAF9"/>
<rect x="186.447" y="122.635" width="30.2335" height="44.5584" rx="7" fill="white" stroke="#1976D2" stroke-width="6"/>
<rect x="191.873" y="116.264" width="20.2234" height="10.9543" rx="5.47716" fill="#1976D2"/>
<path d="M192.716 131.431H210.411" stroke="#19D263" stroke-width="3" stroke-linecap="round"/>
<path d="M192.716 136.487H210.411" stroke="#1976D2" stroke-width="3" stroke-linecap="round"/>
<path d="M192.716 141.543H210.411" stroke="#1976D2" stroke-width="3" stroke-linecap="round"/>
<path d="M192.716 146.599H210.411" stroke="#1976D2" stroke-width="3" stroke-linecap="round"/>
<path d="M192.716 151.655H210.411" stroke="#1976D2" stroke-width="3" stroke-linecap="round"/>
<path d="M201.985 118.792L201.985 123.848" stroke="white" stroke-width="2" stroke-linecap="round"/>
<path d="M204.513 121.32L199.457 121.32" stroke="white" stroke-width="2" stroke-linecap="round"/>
<path d="M250.216 151.523C265.84 151.523 278.505 138.87 278.505 123.261C278.505 107.653 265.84 95 250.216 95C234.593 95 221.928 107.653 221.928 123.261C221.928 138.87 234.593 151.523 250.216 151.523Z" fill="#1976D2"/>
<path d="M215 193.627C215 174.196 230.767 158.444 250.216 158.444C269.666 158.444 285.433 174.196 285.433 193.627V236.884C285.433 238.158 284.4 239.191 283.124 239.191H217.309C216.033 239.191 215 238.158 215 236.884V193.627Z" fill="#1976D2"/>
<path d="M235 194.793L242.156 202L264 180" stroke="#19D263" stroke-width="8" stroke-linecap="round"/>
<rect x="266" y="202" width="37" height="54" rx="7" fill="white" stroke="#1976D2" stroke-width="6"/>
<rect x="273" y="195" width="24" height="13" rx="6.5" fill="#1976D2"/>
<path d="M274 213H295" stroke="#1976D2" stroke-width="3" stroke-linecap="round"/>
<path d="M274 219H295" stroke="#19D263" stroke-width="3" stroke-linecap="round"/>
<path d="M274 225H295" stroke="#19D263" stroke-width="3" stroke-linecap="round"/>
<path d="M274 231H295" stroke="#1976D2" stroke-width="3" stroke-linecap="round"/>
<path d="M274 237H295" stroke="#19D263" stroke-width="3" stroke-linecap="round"/>
<line x1="96" y1="225" x2="265" y2="225" stroke="#19D263" stroke-width="2"/>
<path d="M104 219H112.5V225V237H104" stroke="#19D263"/>
<path d="M192 131L158 131L158 232" stroke="#19D263" stroke-dasharray="2 2"/>
<path d="M104 225H113" stroke="#19D263"/>
<path d="M274 237L265.5 237L265.5 231L265.5 219L274 219" stroke="#19D263"/>
<path d="M274 225L265 225" stroke="#19D263"/>
<path d="M153.158 235.895L148.08 232.966C147.155 232.432 146.103 232.523 145.731 233.167L137.675 247.108C137.302 247.752 137.75 248.707 138.675 249.241L143.753 252.17C144.678 252.703 145.729 252.613 146.102 251.968L154.158 238.028C154.531 237.383 154.083 236.428 153.158 235.895Z" fill="#0E3F71"/>
<path d="M157.424 237C165.432 237 171.924 230.508 171.924 222.5C171.924 214.492 165.432 208 157.424 208C149.416 208 142.924 214.492 142.924 222.5C142.924 230.508 149.416 237 157.424 237Z" fill="white" stroke="#0E3F71" stroke-width="6"/>
<path d="M94 198L94 204" stroke="white" stroke-width="2" stroke-linecap="round"/>
<path d="M97 201L91 201" stroke="white" stroke-width="2" stroke-linecap="round"/>
<path d="M285 198L285 204" stroke="white" stroke-width="2" stroke-linecap="round"/>
<path d="M288 201L282 201" stroke="white" stroke-width="2" stroke-linecap="round"/>
<path d="M407.723 186.816C412.924 186.816 417.14 182.604 417.14 177.408C417.14 172.212 412.924 168 407.723 168C402.522 168 398.306 172.212 398.306 177.408C398.306 182.604 402.522 186.816 407.723 186.816Z" fill="#8BDBE1"/>
<path d="M396 200.832C396 194.364 401.248 189.12 407.723 189.12C414.198 189.12 419.447 194.364 419.447 200.832V214.868C419.447 215.493 418.939 216 418.314 216H397.133C396.507 216 396 215.493 396 214.868V200.832Z" fill="#8BDBE1"/>
<path d="M361.444 187.51C366.522 187.51 370.637 183.398 370.637 178.326C370.637 173.254 366.522 169.142 361.444 169.142C356.367 169.142 352.251 173.254 352.251 178.326C352.251 183.398 356.367 187.51 361.444 187.51Z" fill="#8BDBE1"/>
<path d="M350 201.193C350 194.878 355.124 189.759 361.444 189.759C367.765 189.759 372.889 194.878 372.889 201.193V214.895C372.889 215.505 372.394 216 371.783 216H351.106C350.495 216 350 215.505 350 214.895V201.193Z" fill="#8BDBE1"/>
<path d="M384.18 200.759C390.47 200.759 395.57 195.664 395.57 189.379C395.57 183.095 390.47 178 384.18 178C377.889 178 372.789 183.095 372.789 189.379C372.789 195.664 377.889 200.759 384.18 200.759Z" fill="#15B0BB"/>
<path d="M370 217.712C370 209.888 376.348 203.546 384.18 203.546C392.011 203.546 398.36 209.888 398.36 217.712V234.689C398.36 235.445 397.746 236.058 396.99 236.058H371.37C370.614 236.058 370 235.445 370 234.689V217.712Z" fill="#15B0BB"/>
<path d="M378 222.052L380.961 225L390 216" stroke="#1DF674" stroke-width="3" stroke-linecap="round"/>
<path d="M423 257L423 263" stroke="white" stroke-width="2" stroke-linecap="round"/>
<path d="M426 260L420 260" stroke="white" stroke-width="2" stroke-linecap="round"/>
<rect x="335.5" y="150.5" width="95" height="99" rx="19.5" stroke="#8BDBE1" stroke-width="5"/>
<rect x="258.5" y="1.5" width="73" height="72" rx="22.5" fill="white" stroke="#D3B0FF" stroke-width="3"/>
<path d="M311.444 29.8576C314.998 29.8576 317.879 26.9793 317.879 23.4288C317.879 19.8783 314.998 17 311.444 17C307.89 17 305.009 19.8783 305.009 23.4288C305.009 26.9793 307.89 29.8576 311.444 29.8576Z" fill="#D3B0FF"/>
<path d="M303.433 39.4352C303.433 35.0152 307.02 31.432 311.444 31.432C315.869 31.432 319.455 35.0152 319.455 39.4352V49.0267C319.455 49.4537 319.109 49.8 318.681 49.8H304.207C303.78 49.8 303.433 49.4537 303.433 49.0267V39.4352Z" fill="#D3B0FF"/>
<path d="M279.82 30.3319C283.29 30.3319 286.102 27.5221 286.102 24.056C286.102 20.5899 283.29 17.7801 279.82 17.7801C276.351 17.7801 273.538 20.5899 273.538 24.056C273.538 27.5221 276.351 30.3319 279.82 30.3319Z" fill="#D3B0FF"/>
<path d="M272 39.6817C272 35.3668 275.501 31.8688 279.82 31.8688C284.14 31.8688 287.641 35.3668 287.641 39.6817V49.0451C287.641 49.4619 287.302 49.8 286.885 49.8H272.756C272.338 49.8 272 49.4619 272 49.0451V39.6817Z" fill="#D3B0FF"/>
<path d="M295.356 39.3851C299.655 39.3851 303.14 35.9037 303.14 31.6092C303.14 27.3147 299.655 23.8333 295.356 23.8333C291.058 23.8333 287.573 27.3147 287.573 31.6092C287.573 35.9037 291.058 39.3851 295.356 39.3851Z" fill="#D3B0FF"/>
<path d="M285.667 50.9697C285.667 45.6234 290.005 41.2894 295.356 41.2894C300.708 41.2894 305.046 45.6234 305.046 50.9697V62.571C305.046 63.0874 304.627 63.5063 304.11 63.5063H286.603C286.086 63.5063 285.667 63.0874 285.667 62.571V50.9697Z" fill="#D3B0FF"/>
<rect x="312.5" y="78.5" width="63" height="65" rx="15.5" fill="white" stroke="#FBB79F" stroke-width="3"/>
<path d="M357.877 103.529C360.824 103.529 363.213 101.142 363.213 98.1979C363.213 95.2536 360.824 92.8667 357.877 92.8667C354.929 92.8667 352.54 95.2536 352.54 98.1979C352.54 101.142 354.929 103.529 357.877 103.529Z" fill="#FBB79F"/>
<path d="M351.233 111.471C351.233 107.806 354.208 104.835 357.877 104.835C361.546 104.835 364.52 107.806 364.52 111.471V119.425C364.52 119.779 364.232 120.067 363.878 120.067H351.875C351.521 120.067 351.233 119.779 351.233 119.425V111.471Z" fill="#FBB79F"/>
<path d="M331.652 103.922C334.529 103.922 336.861 101.592 336.861 98.718C336.861 95.8437 334.529 93.5136 331.652 93.5136C328.774 93.5136 326.442 95.8437 326.442 98.718C326.442 101.592 328.774 103.922 331.652 103.922Z" fill="#FBB79F"/>
<path d="M325.167 111.676C325.167 108.098 328.07 105.197 331.652 105.197C335.234 105.197 338.137 108.098 338.137 111.676V119.441C338.137 119.786 337.856 120.067 337.51 120.067H325.793C325.447 120.067 325.167 119.786 325.167 119.441V111.676Z" fill="#FBB79F"/>
<path d="M344.535 111.43C348.1 111.43 350.99 108.543 350.99 104.982C350.99 101.42 348.1 98.5333 344.535 98.5333C340.97 98.5333 338.081 101.42 338.081 104.982C338.081 108.543 340.97 111.43 344.535 111.43Z" fill="#FBB79F"/>
<path d="M336.5 121.037C336.5 116.603 340.097 113.009 344.535 113.009C348.973 113.009 352.57 116.603 352.57 121.037V130.657C352.57 131.086 352.223 131.433 351.794 131.433H337.276C336.848 131.433 336.5 131.086 336.5 130.657V121.037Z" fill="#FBB79F"/>
<path d="M158 240.333V289H383V236" stroke="#19D263" stroke-opacity="0.5" stroke-linecap="round"/>
</svg>
