<svg width="508" height="199" viewBox="0 0 508 199" fill="none" xmlns="http://www.w3.org/2000/svg">
<path d="M35.2164 56.5228C50.8398 56.5228 63.5051 43.8698 63.5051 28.2614C63.5051 12.6531 50.8398 0 35.2164 0C19.593 0 6.92773 12.6531 6.92773 28.2614C6.92773 43.8698 19.593 56.5228 35.2164 56.5228Z" fill="#1976D2"/>
<path d="M0 98.6265C0 79.1957 15.7666 63.444 35.2165 63.444C54.6664 63.444 70.433 79.1957 70.433 98.6265V141.884C70.433 143.158 69.3996 144.191 68.1237 144.191H2.30928C1.0334 144.191 0 143.158 0 141.884V98.6265Z" fill="#1976D2"/>
<path d="M226.216 56.5228C241.84 56.5228 254.505 43.8698 254.505 28.2614C254.505 12.6531 241.84 0 226.216 0C210.593 0 197.928 12.6531 197.928 28.2614C197.928 43.8698 210.593 56.5228 226.216 56.5228Z" fill="#1976D2"/>
<path d="M191 98.6265C191 79.1957 206.767 63.444 226.216 63.444C245.666 63.444 261.433 79.1957 261.433 98.6265V141.884C261.433 143.158 260.4 144.191 259.124 144.191H193.309C192.033 144.191 191 143.158 191 141.884V98.6265Z" fill="#1976D2"/>
<path d="M211 99.7931L218.156 107L240 85" stroke="#19D263" stroke-width="8" stroke-linecap="round"/>
<path d="M339.216 56.5228C354.84 56.5228 367.505 43.8698 367.505 28.2614C367.505 12.6531 354.84 0 339.216 0C323.593 0 310.928 12.6531 310.928 28.2614C310.928 43.8698 323.593 56.5228 339.216 56.5228Z" fill="#90CAF9"/>
<path d="M304 98.6265C304 79.1957 319.767 63.444 339.216 63.444C358.666 63.444 374.433 79.1957 374.433 98.6265V141.884C374.433 143.158 373.4 144.191 372.124 144.191H306.309C305.033 144.191 304 143.158 304 141.884V98.6265Z" fill="#90CAF9"/>
<path d="M452.216 56.5228C467.84 56.5228 480.505 43.8698 480.505 28.2614C480.505 12.6531 467.84 0 452.216 0C436.593 0 423.928 12.6531 423.928 28.2614C423.928 43.8698 436.593 56.5228 452.216 56.5228Z" fill="#90CAF9"/>
<path d="M417 98.6265C417 79.1957 432.767 63.444 452.216 63.444C471.666 63.444 487.433 79.1957 487.433 98.6265V141.884C487.433 143.158 486.4 144.191 485.124 144.191H419.309C418.033 144.191 417 143.158 417 141.884V98.6265Z" fill="#90CAF9"/>
<rect x="51" y="107" width="37" height="54" rx="7" fill="white" stroke="#1976D2" stroke-width="6"/>
<rect x="58" y="100" width="24" height="13" rx="6.5" fill="#1976D2"/>
<path d="M59 118H80" stroke="#1976D2" stroke-width="3" stroke-linecap="round"/>
<path d="M59 124H80" stroke="#19D263" stroke-width="3" stroke-linecap="round"/>
<path d="M59 130H80" stroke="#19D263" stroke-width="3" stroke-linecap="round"/>
<path d="M59 136H80" stroke="#1976D2" stroke-width="3" stroke-linecap="round"/>
<path d="M59 142H80" stroke="#19D263" stroke-width="3" stroke-linecap="round"/>
<rect x="242" y="107" width="37" height="54" rx="7" fill="white" stroke="#1976D2" stroke-width="6"/>
<rect x="249" y="100" width="24" height="13" rx="6.5" fill="#1976D2"/>
<path d="M250 118H271" stroke="#1976D2" stroke-width="3" stroke-linecap="round"/>
<path d="M250 124H271" stroke="#19D263" stroke-width="3" stroke-linecap="round"/>
<path d="M250 130H271" stroke="#19D263" stroke-width="3" stroke-linecap="round"/>
<path d="M250 136H271" stroke="#1976D2" stroke-width="3" stroke-linecap="round"/>
<path d="M250 142H271" stroke="#19D263" stroke-width="3" stroke-linecap="round"/>
<rect x="355" y="107" width="37" height="54" rx="7" fill="white" stroke="#1976D2" stroke-width="6"/>
<rect x="362" y="100" width="24" height="13" rx="6.5" fill="#1976D2"/>
<path d="M363 118H384" stroke="#1976D2" stroke-width="3" stroke-linecap="round"/>
<path d="M363 124H384" stroke="#19D263" stroke-width="3" stroke-linecap="round"/>
<path d="M363 130H384" stroke="#1976D2" stroke-width="3" stroke-linecap="round"/>
<path d="M363 136H384" stroke="#1976D2" stroke-width="3" stroke-linecap="round"/>
<path d="M363 142H384" stroke="#19D263" stroke-width="3" stroke-linecap="round"/>
<rect x="468" y="107" width="37" height="54" rx="7" fill="white" stroke="#1976D2" stroke-width="6"/>
<rect x="475" y="100" width="24" height="13" rx="6.5" fill="#1976D2"/>
<path d="M476 118H497" stroke="#19D263" stroke-width="3" stroke-linecap="round"/>
<path d="M476 124H497" stroke="#1976D2" stroke-width="3" stroke-linecap="round"/>
<path d="M476 130H497" stroke="#1976D2" stroke-width="3" stroke-linecap="round"/>
<path d="M476 136H497" stroke="#1976D2" stroke-width="3" stroke-linecap="round"/>
<path d="M476 142H497" stroke="#1976D2" stroke-width="3" stroke-linecap="round"/>
<line x1="72" y1="130" x2="241" y2="130" stroke="#19D263" stroke-width="2"/>
<path d="M80 124H88.5V130V142H80" stroke="#19D263"/>
<path d="M80 130H89" stroke="#19D263"/>
<path d="M250 142L241.5 142L241.5 136L241.5 124L250 124" stroke="#19D263"/>
<path d="M250 130L241 130" stroke="#19D263"/>
<path d="M467.5 132.5L467.5 118L476 118" stroke="#19D263" stroke-dasharray="2 2"/>
<path d="M133 142V198.5H339.5V132.5" stroke="#19D263" stroke-dasharray="2 2"/>
<path d="M339.5 198.5H452.5V132.5" stroke="#19D263" stroke-dasharray="2 2"/>
<path d="M452.5 132.5H467.5" stroke="#19D263" stroke-linecap="round" stroke-dasharray="2 2"/>
<path d="M363 142L354.5 142L354.5 136L354.5 124L363 124" stroke="#19D263" stroke-dasharray="2 2"/>
<path d="M339.5 132.5H354.5" stroke="#19D263" stroke-linecap="round" stroke-dasharray="2 2"/>
<path d="M129.158 140.895L124.08 137.966C123.155 137.432 122.103 137.523 121.731 138.167L113.675 152.108C113.302 152.752 113.75 153.707 114.675 154.241L119.753 157.17C120.678 157.703 121.729 157.613 122.102 156.968L130.158 143.028C130.531 142.383 130.083 141.428 129.158 140.895Z" fill="#0E3F71"/>
<path d="M133.424 142C141.432 142 147.924 135.508 147.924 127.5C147.924 119.492 141.432 113 133.424 113C125.416 113 118.924 119.492 118.924 127.5C118.924 135.508 125.416 142 133.424 142Z" fill="white" stroke="#0E3F71" stroke-width="6"/>
<path d="M70 103L70 109" stroke="white" stroke-width="2" stroke-linecap="round"/>
<path d="M73 106L67 106" stroke="white" stroke-width="2" stroke-linecap="round"/>
<path d="M261 103L261 109" stroke="white" stroke-width="2" stroke-linecap="round"/>
<path d="M264 106L258 106" stroke="white" stroke-width="2" stroke-linecap="round"/>
<path d="M374 103L374 109" stroke="white" stroke-width="2" stroke-linecap="round"/>
<path d="M377 106L371 106" stroke="white" stroke-width="2" stroke-linecap="round"/>
<path d="M487 103L487 109" stroke="white" stroke-width="2" stroke-linecap="round"/>
<path d="M490 106L484 106" stroke="white" stroke-width="2" stroke-linecap="round"/>
</svg>
