<svg fill="blue" height="800px" width="800px" version="1.1" id="Capa_1"
     xmlns="http://www.w3.org/2000/svg" xmlns:xlink="http://www.w3.org/1999/xlink"
     viewBox="0 0 297 297" xml:space="preserve">
  <path d="
    M187.144,216.366
    l4.622-32.482
    l19.482-12.094
    c3.263-2.024,5.02-5.786,4.477-9.587
    l-7.478-52.448
    c-3.053-20.09-20.811-36.466-39.77-36.839
    c10.833-7.076,18.019-19.339,18.019-33.264
    C186.496,17.788,168.795,0,147.037,0
    s-39.458,17.788-39.458,39.652
    c0,13.925,7.186,26.187,18.019,33.264
    c-18.959,0.375-36.718,16.751-39.781,36.927
    l-7.466,52.36
    c-0.543,3.801,1.214,7.563,4.476,9.587
    l19.48,12.094
    l4.683,32.9
    z
    M147.037,19.354
    c11.086,0,20.104,9.105,20.104,20.298
    c0,11.192-9.019,20.299-20.104,20.299
    c-11.085,0-20.104-9.106-20.104-20.299
    C126.934,28.46,135.952,19.354,147.037,19.354
    z
    M98.402,158.679
    l6.561-46.018
    c1.681-11.063,11.435-20.408,21.298-20.408
    h41.555
    c9.862,0,19.615,9.346,21.283,20.32
    l6.573,46.105
    l-17.953,11.145
    c-2.435,1.512-4.074,4.023-4.478,6.858
    l-10.3,72.378
    c-0.005,0.037-0.011,0.075-0.016,0.112
    c-0.243,1.863-1.899,3.226-2.67,3.226
    h-26.437
    c-0.771,0-2.428-1.362-2.671-3.226
    c-0.005-0.037-0.011-0.075-0.016-0.112
    l-10.302-72.378
    c-0.403-2.836-2.043-5.347-4.477-6.858
    L98.402,158.679
    z"/>
</svg>
