<!-- based on https://www.svgrepo.com/svg/69721/human-location -->
<svg fill="blue" height="800px" width="800px" version="1.1" id="Capa_1" xmlns="http://www.w3.org/2000/svg" xmlns:xlink="http://www.w3.org/1999/xlink" 
     viewBox="0 0 297 297" xml:space="preserve">
  
  <!-- Head -->
  <circle cx="147.037" cy="70" r="20.104"/>

  <!-- Body -->
  <path d="M98.402,158.679l6.561-46.018c1.681-11.063,11.435-20.408,21.298-20.408h41.555
    c9.862,0,19.615,9.346,21.283,20.32l6.573,46.105l-17.953,11.145c-2.435,1.512-4.074,4.023-4.478,6.858l-10.3,72.378
    c-0.005,0.037-0.011,0.075-0.016,0.112c-0.243,1.863-1.899,3.226-2.67,3.226h-26.437c-0.771,0-2.428-1.362-2.671-3.226
    c-0.005-0.037-0.011-0.075-0.016-0.112l-10.302-72.378c-0.403-2.836-2.043-5.347-4.477-6.858L98.402,158.679z"/>
</svg>
