<?xml version="1.0" encoding="utf-8" ?>
<svg xmlns="http://www.w3.org/2000/svg" xmlns:ev="http://www.w3.org/2001/xml-events" xmlns:xlink="http://www.w3.org/1999/xlink" baseProfile="full" height="500px" version="1.1" width="500px">
  <defs>
    <marker id="start_arrow" markerHeight="6" markerWidth="6" orient="auto" refX="3" refY="3">
      <path d="M6,0 L0,3 L6,6 Z" fill="black"/>
    </marker>
    <marker id="end_arrow" markerHeight="6" markerWidth="6" orient="auto" refX="3" refY="3">
      <path d="M0,0 L6,3 L0,6 Z" fill="black"/>
    </marker>
  </defs>
  <g fill="blue" transform="translate(235.2963,233.0) scale(0.1)">
    <circle cx="147.037" cy="70.0" r="20.104"/>
    <path d="M98.402,158.679 L104.963,112.661 C106.644,101.598 116.398,92.253 126.261,92.253 H167.816 C177.678,92.253 187.431,101.599 189.099,112.573 L195.672,158.678 L177.719,169.823 C175.284,171.335 173.645,173.846 173.241,176.681 L162.941,249.059 C162.936,249.096 162.93,249.134 162.925,249.171 C162.682,251.034 161.026,252.397 160.255,252.397 H133.818 C133.047,252.397 131.39,251.035 131.147,249.171 C131.142,249.134 131.136,249.096 131.131,249.059 L120.829,176.681 C120.426,173.845 118.786,171.334 116.352,169.823 L98.402,158.679 Z"/>
  </g>
  <g fill="grey" transform="translate(307.78833505625096,243.0) scale(0.1)">
    <circle cx="147.037" cy="70.0" r="20.104"/>
    <path d="M98.402,158.679 L104.963,112.661 C106.644,101.598 116.398,92.253 126.261,92.253 H167.816 C177.678,92.253 187.431,101.599 189.099,112.573 L195.672,158.678 L177.719,169.823 C175.284,171.335 173.645,173.846 173.241,176.681 L162.941,249.059 C162.936,249.096 162.93,249.134 162.925,249.171 C162.682,251.034 161.026,252.397 160.255,252.397 H133.818 C133.047,252.397 131.39,251.035 131.147,249.171 C131.142,249.134 131.136,249.096 131.131,249.059 L120.829,176.681 C120.426,173.845 118.786,171.334 116.352,169.823 L98.402,158.679 Z"/>
  </g>
  <line stroke="black" stroke-width="1.5" x1="270.0" x2="302.492035056251" y1="250.0" y2="250.0"/>
  <line stroke="black" stroke-width="1.5" x1="270.0" x2="270.0" y1="252.5" y2="247.5"/>
  <line stroke="black" stroke-width="1.5" x1="302.492035056251" x2="302.492035056251" y1="252.5" y2="247.5"/>
  <g fill="grey" transform="translate(326.49703413879917,276.1943525697484) scale(0.1)">
    <circle cx="147.037" cy="70.0" r="20.104"/>
    <path d="M98.402,158.679 L104.963,112.661 C106.644,101.598 116.398,92.253 126.261,92.253 H167.816 C177.678,92.253 187.431,101.599 189.099,112.573 L195.672,158.678 L177.719,169.823 C175.284,171.335 173.645,173.846 173.241,176.681 L162.941,249.059 C162.936,249.096 162.93,249.134 162.925,249.171 C162.682,251.034 161.026,252.397 160.255,252.397 H133.818 C133.047,252.397 131.39,251.035 131.147,249.171 C131.142,249.134 131.136,249.096 131.131,249.059 L120.829,176.681 C120.426,173.845 118.786,171.334 116.352,169.823 L98.402,158.679 Z"/>
  </g>
  <line stroke="black" stroke-width="1.5" x1="268.79385241571816" x2="322.406881723081" y1="256.8404028665134" y2="276.353949703235"/>
  <line stroke="black" stroke-width="1.5" x1="267.938802057404" x2="269.6489027740323" y1="259.18963441847814" y2="254.4911713145486"/>
  <line stroke="black" stroke-width="1.5" x1="321.5518313647669" x2="323.2619320813952" y1="278.70318125519975" y2="274.00471815127025"/>
  <g fill="grey" transform="translate(302.6105337354403,299.48334870038923) scale(0.1)">
    <circle cx="147.037" cy="70.0" r="20.104"/>
    <path d="M98.402,158.679 L104.963,112.661 C106.644,101.598 116.398,92.253 126.261,92.253 H167.816 C177.678,92.253 187.431,101.599 189.099,112.573 L195.672,158.678 L177.719,169.823 C175.284,171.335 173.645,173.846 173.241,176.681 L162.941,249.059 C162.936,249.096 162.93,249.134 162.925,249.171 C162.682,251.034 161.026,252.397 160.255,252.397 H133.818 C133.047,252.397 131.39,251.035 131.147,249.171 C131.142,249.134 131.136,249.096 131.131,249.059 L120.829,176.681 C120.426,173.845 118.786,171.334 116.352,169.823 L98.402,158.679 Z"/>
  </g>
  <line stroke="black" stroke-width="1.5" x1="265.32088886237955" x2="301.9933448730608" y1="262.8557521937308" y2="293.62759650665845"/>
  <line stroke="black" stroke-width="1.5" x1="263.7139198381632" x2="266.9278578865959" y1="264.7708633015282" y2="260.94064108593335"/>
  <line stroke="black" stroke-width="1.5" x1="300.3863758488444" x2="303.60031389727715" y1="295.5427076144559" y2="291.712485398861"/>
  <g fill="grey" transform="translate(263.91294730713776,292.5654870782417) scale(0.1)">
    <circle cx="147.037" cy="70.0" r="20.104"/>
    <path d="M98.402,158.679 L104.963,112.661 C106.644,101.598 116.398,92.253 126.261,92.253 H167.816 C177.678,92.253 187.431,101.599 189.099,112.573 L195.672,158.678 L177.719,169.823 C175.284,171.335 173.645,173.846 173.241,176.681 L162.941,249.059 C162.936,249.096 162.93,249.134 162.925,249.171 C162.682,251.034 161.026,252.397 160.255,252.397 H133.818 C133.047,252.397 131.39,251.035 131.147,249.171 C131.142,249.134 131.136,249.096 131.131,249.059 L120.829,176.681 C120.426,173.845 118.786,171.334 116.352,169.823 L98.402,158.679 Z"/>
  </g>
  <line stroke="black" stroke-width="1.5" x1="260.0" x2="268.6166473071378" y1="267.3205080756888" y2="282.2449790025529"/>
  <line stroke="black" stroke-width="1.5" x1="257.8349364905389" x2="262.1650635094611" y1="268.5705080756888" y2="266.0705080756888"/>
  <line stroke="black" stroke-width="1.5" x1="266.4515837976767" x2="270.7817108165989" y1="283.4949790025529" y2="280.9949790025529"/>
  <g fill="grey" transform="translate(245.21448934832327,299.2488469346718) scale(0.1)">
    <circle cx="147.037" cy="70.0" r="20.104"/>
    <path d="M98.402,158.679 L104.963,112.661 C106.644,101.598 116.398,92.253 126.261,92.253 H167.816 C177.678,92.253 187.431,101.599 189.099,112.573 L195.672,158.678 L177.719,169.823 C175.284,171.335 173.645,173.846 173.241,176.681 L162.941,249.059 C162.936,249.096 162.93,249.134 162.925,249.171 C162.682,251.034 161.026,252.397 160.255,252.397 H133.818 C133.047,252.397 131.39,251.035 131.147,249.171 C131.142,249.134 131.136,249.096 131.131,249.059 L120.829,176.681 C120.426,173.845 118.786,171.334 116.352,169.823 L98.402,158.679 Z"/>
  </g>
  <line stroke="black" stroke-width="1.5" x1="253.47296355333862" x2="256.44522579498465" y1="269.69615506024417" y2="286.55269187442764"/>
  <line stroke="black" stroke-width="1.5" x1="251.0109441708081" x2="255.93498293586913" y1="270.1302755044115" y2="269.26203461607685"/>
  <line stroke="black" stroke-width="1.5" x1="253.98320641245414" x2="258.90724517751516" y1="286.98681231859496" y2="286.1185714302603"/>
  <g fill="grey" transform="translate(218.3042097844231,339.36693231690526) scale(0.1)">
    <circle cx="147.037" cy="70.0" r="20.104"/>
    <path d="M98.402,158.679 L104.963,112.661 C106.644,101.598 116.398,92.253 126.261,92.253 H167.816 C177.678,92.253 187.431,101.599 189.099,112.573 L195.672,158.678 L177.719,169.823 C175.284,171.335 173.645,173.846 173.241,176.681 L162.941,249.059 C162.936,249.096 162.93,249.134 162.925,249.171 C162.682,251.034 161.026,252.397 160.255,252.397 H133.818 C133.047,252.397 131.39,251.035 131.147,249.171 C131.142,249.134 131.136,249.096 131.131,249.059 L120.829,176.681 C120.426,173.845 118.786,171.334 116.352,169.823 L98.402,158.679 Z"/>
  </g>
  <line stroke="black" stroke-width="1.5" x1="246.52703644666138" x2="236.48087333776172" y1="269.69615506024417" y2="326.6707772566611"/>
  <line stroke="black" stroke-width="1.5" x1="244.06501706413087" x2="248.9890558291919" y1="269.26203461607685" y2="270.1302755044115"/>
  <line stroke="black" stroke-width="1.5" x1="234.0188539552312" x2="238.94289272029224" y1="326.2366568124938" y2="327.1048977008284"/>
  <g fill="grey" transform="translate(210.1131231093725,286.6185418705612) scale(0.1)">
    <circle cx="147.037" cy="70.0" r="20.104"/>
    <path d="M98.402,158.679 L104.963,112.661 C106.644,101.598 116.398,92.253 126.261,92.253 H167.816 C177.678,92.253 187.431,101.599 189.099,112.573 L195.672,158.678 L177.719,169.823 C175.284,171.335 173.645,173.846 173.241,176.681 L162.941,249.059 C162.936,249.096 162.93,249.134 162.925,249.171 C162.682,251.034 161.026,252.397 160.255,252.397 H133.818 C133.047,252.397 131.39,251.035 131.147,249.171 C131.142,249.134 131.136,249.096 131.131,249.059 L120.829,176.681 C120.426,173.845 118.786,171.334 116.352,169.823 L98.402,158.679 Z"/>
  </g>
  <line stroke="blue" stroke-width="1.5" x1="240.0" x2="234.8168231093725" y1="267.3205080756888" y2="276.2980337948724"/>
  <line stroke="black" stroke-width="1.5" x1="237.8349364905389" x2="242.1650635094611" y1="266.0705080756888" y2="268.5705080756888"/>
  <line stroke="black" stroke-width="1.5" x1="232.6517595999114" x2="236.9818866188336" y1="275.0480337948724" y2="277.5480337948724"/>
  <g fill="grey" transform="translate(194.198181199512,277.48541632756957) scale(0.1)">
    <circle cx="147.037" cy="70.0" r="20.104"/>
    <path d="M98.402,158.679 L104.963,112.661 C106.644,101.598 116.398,92.253 126.261,92.253 H167.816 C177.678,92.253 187.431,101.599 189.099,112.573 L195.672,158.678 L177.719,169.823 C175.284,171.335 173.645,173.846 173.241,176.681 L162.941,249.059 C162.936,249.096 162.93,249.134 162.925,249.171 C162.682,251.034 161.026,252.397 160.255,252.397 H133.818 C133.047,252.397 131.39,251.035 131.147,249.171 C131.142,249.134 131.136,249.096 131.131,249.059 L120.829,176.681 C120.426,173.845 118.786,171.334 116.352,169.823 L98.402,158.679 Z"/>
  </g>
  <line stroke="black" stroke-width="1.5" x1="234.67911113762045" x2="224.22277006189154" y1="262.8557521937308" y2="271.6296641338388"/>
  <line stroke="black" stroke-width="1.5" x1="233.0721421134041" x2="236.2860801618368" y1="260.94064108593335" y2="264.7708633015282"/>
  <line stroke="black" stroke-width="1.5" x1="222.6158010376752" x2="225.82973908610788" y1="269.71455302604136" y2="273.5447752416362"/>
  <g fill="grey" transform="translate(186.58188891820097,260.73059561358247) scale(0.1)">
    <circle cx="147.037" cy="70.0" r="20.104"/>
    <path d="M98.402,158.679 L104.963,112.661 C106.644,101.598 116.398,92.253 126.261,92.253 H167.816 C177.678,92.253 187.431,101.599 189.099,112.573 L195.672,158.678 L177.719,169.823 C175.284,171.335 173.645,173.846 173.241,176.681 L162.941,249.059 C162.936,249.096 162.93,249.134 162.925,249.171 C162.682,251.034 161.026,252.397 160.255,252.397 H133.818 C133.047,252.397 131.39,251.035 131.147,249.171 C131.142,249.134 131.136,249.096 131.131,249.059 L120.829,176.681 C120.426,173.845 118.786,171.334 116.352,169.823 L98.402,158.679 Z"/>
  </g>
  <line stroke="black" stroke-width="1.5" x1="231.20614758428184" x2="220.07944133391914" y1="256.8404028665134" y2="260.8901927470691"/>
  <line stroke="black" stroke-width="1.5" x1="230.35109722596766" x2="232.061197942596" y1="254.4911713145486" y2="259.18963441847814"/>
  <line stroke="black" stroke-width="1.5" x1="219.22439097560496" x2="220.9344916922333" y1="258.54096119510433" y2="263.23942429903383"/>
  <g fill="grey" transform="translate(173.10709392743033,243.0) scale(0.1)">
    <circle cx="147.037" cy="70.0" r="20.104"/>
    <path d="M98.402,158.679 L104.963,112.661 C106.644,101.598 116.398,92.253 126.261,92.253 H167.816 C177.678,92.253 187.431,101.599 189.099,112.573 L195.672,158.678 L177.719,169.823 C175.284,171.335 173.645,173.846 173.241,176.681 L162.941,249.059 C162.936,249.096 162.93,249.134 162.925,249.171 C162.682,251.034 161.026,252.397 160.255,252.397 H133.818 C133.047,252.397 131.39,251.035 131.147,249.171 C131.142,249.134 131.136,249.096 131.131,249.059 L120.829,176.681 C120.426,173.845 118.786,171.334 116.352,169.823 L98.402,158.679 Z"/>
  </g>
  <line stroke="black" stroke-width="1.5" x1="230.0" x2="207.81079392743032" y1="250.0" y2="250.0"/>
  <line stroke="black" stroke-width="1.5" x1="230.0" x2="230.0" y1="247.5" y2="252.5"/>
  <line stroke="black" stroke-width="1.5" x1="207.81079392743032" x2="207.81079392743032" y1="247.5" y2="252.5"/>
  <g fill="grey" transform="translate(182.25983246494047,223.69630448661255) scale(0.1)">
    <circle cx="147.037" cy="70.0" r="20.104"/>
    <path d="M98.402,158.679 L104.963,112.661 C106.644,101.598 116.398,92.253 126.261,92.253 H167.816 C177.678,92.253 187.431,101.599 189.099,112.573 L195.672,158.678 L177.719,169.823 C175.284,171.335 173.645,173.846 173.241,176.681 L162.941,249.059 C162.936,249.096 162.93,249.134 162.925,249.171 C162.682,251.034 161.026,252.397 160.255,252.397 H133.818 C133.047,252.397 131.39,251.035 131.147,249.171 C131.142,249.134 131.136,249.096 131.131,249.059 L120.829,176.681 C120.426,173.845 118.786,171.334 116.352,169.823 L98.402,158.679 Z"/>
  </g>
  <line stroke="black" stroke-width="1.5" x1="231.20614758428184" x2="215.75738488065863" y1="243.1595971334866" y2="237.53670735312593"/>
  <line stroke="black" stroke-width="1.5" x1="232.061197942596" x2="230.35109722596766" y1="240.81036558152184" y2="245.5088286854514"/>
  <line stroke="black" stroke-width="1.5" x1="216.6124352389728" x2="214.90233452234446" y1="235.18747580116116" y2="239.8859389050907"/>
  <g fill="grey" transform="translate(173.31292519871712,190.98977306512043) scale(0.1)">
    <circle cx="147.037" cy="70.0" r="20.104"/>
    <path d="M98.402,158.679 L104.963,112.661 C106.644,101.598 116.398,92.253 126.261,92.253 H167.816 C177.678,92.253 187.431,101.599 189.099,112.573 L195.672,158.678 L177.719,169.823 C175.284,171.335 173.645,173.846 173.241,176.681 L162.941,249.059 C162.936,249.096 162.93,249.134 162.925,249.171 C162.682,251.034 161.026,252.397 160.255,252.397 H133.818 C133.047,252.397 131.39,251.035 131.147,249.171 C131.142,249.134 131.136,249.096 131.131,249.059 L120.829,176.681 C120.426,173.845 118.786,171.334 116.352,169.823 L98.402,158.679 Z"/>
  </g>
  <line stroke="black" stroke-width="1.5" x1="234.67911113762042" x2="203.3375140610967" y1="237.14424780626922" y2="210.8455252588512"/>
  <line stroke="black" stroke-width="1.5" x1="236.28608016183676" x2="233.07214211340408" y1="235.22913669847176" y2="239.05935891406668"/>
  <line stroke="black" stroke-width="1.5" x1="204.94448308531304" x2="201.73054503688036" y1="208.93041415105375" y2="212.76063636664867"/>
  <g fill="grey" transform="translate(188.48587809151806,161.9219709307741) scale(0.1)">
    <circle cx="147.037" cy="70.0" r="20.104"/>
    <path d="M98.402,158.679 L104.963,112.661 C106.644,101.598 116.398,92.253 126.261,92.253 H167.816 C177.678,92.253 187.431,101.599 189.099,112.573 L195.672,158.678 L177.719,169.823 C175.284,171.335 173.645,173.846 173.241,176.681 L162.941,249.059 C162.936,249.096 162.93,249.134 162.925,249.171 C162.682,251.034 161.026,252.397 160.255,252.397 H133.818 C133.047,252.397 131.39,251.035 131.147,249.171 C131.142,249.134 131.136,249.096 131.131,249.059 L120.829,176.681 C120.426,173.845 118.786,171.334 116.352,169.823 L98.402,158.679 Z"/>
  </g>
  <line stroke="black" stroke-width="1.5" x1="240.0" x2="213.18957809151806" y1="232.67949192431124" y2="186.24247900646287"/>
  <line stroke="black" stroke-width="1.5" x1="242.1650635094611" x2="237.8349364905389" y1="231.42949192431124" y2="233.92949192431124"/>
  <line stroke="black" stroke-width="1.5" x1="215.35464160097916" x2="211.02451458205695" y1="184.99247900646287" y2="187.49247900646287"/>
  <g fill="grey" transform="translate(223.50629036050321,176.13553267840427) scale(0.1)">
    <circle cx="147.037" cy="70.0" r="20.104"/>
    <path d="M98.402,158.679 L104.963,112.661 C106.644,101.598 116.398,92.253 126.261,92.253 H167.816 C177.678,92.253 187.431,101.599 189.099,112.573 L195.672,158.678 L177.719,169.823 C175.284,171.335 173.645,173.846 173.241,176.681 L162.941,249.059 C162.936,249.096 162.93,249.134 162.925,249.171 C162.682,251.034 161.026,252.397 160.255,252.397 H133.818 C133.047,252.397 131.39,251.035 131.147,249.171 C131.142,249.134 131.136,249.096 131.131,249.059 L120.829,176.681 C120.426,173.845 118.786,171.334 116.352,169.823 L98.402,158.679 Z"/>
  </g>
  <line stroke="black" stroke-width="1.5" x1="246.52703644666138" x2="241.68295391384183" y1="230.30384493975583" y2="202.83168773864844"/>
  <line stroke="black" stroke-width="1.5" x1="248.9890558291919" x2="244.06501706413087" y1="229.8697244955885" y2="230.73796538392315"/>
  <line stroke="black" stroke-width="1.5" x1="244.14497329637234" x2="239.22093453131131" y1="202.39756729448112" y2="203.26580818281576"/>
  <g fill="grey" transform="translate(248.43645886869885,168.4784559010596) scale(0.1)">
    <circle cx="147.037" cy="70.0" r="20.104"/>
    <path d="M98.402,158.679 L104.963,112.661 C106.644,101.598 116.398,92.253 126.261,92.253 H167.816 C177.678,92.253 187.431,101.599 189.099,112.573 L195.672,158.678 L177.719,169.823 C175.284,171.335 173.645,173.846 173.241,176.681 L162.941,249.059 C162.936,249.096 162.93,249.134 162.925,249.171 C162.682,251.034 161.026,252.397 160.255,252.397 H133.818 C133.047,252.397 131.39,251.035 131.147,249.171 C131.142,249.134 131.136,249.096 131.131,249.059 L120.829,176.681 C120.426,173.845 118.786,171.334 116.352,169.823 L98.402,158.679 Z"/>
  </g>
  <line stroke="black" stroke-width="1.5" x1="253.4729635533386" x2="259.66719531536023" y1="230.30384493975583" y2="195.17461096130376"/>
  <line stroke="black" stroke-width="1.5" x1="255.9349829358691" x2="251.01094417080807" y1="230.73796538392315" y2="229.8697244955885"/>
  <line stroke="black" stroke-width="1.5" x1="262.12921469789075" x2="257.2051759328297" y1="195.60873140547108" y2="194.74049051713644"/>
  <g fill="grey" transform="translate(275.1455141739539,173.9791364090179) scale(0.1)">
    <circle cx="147.037" cy="70.0" r="20.104"/>
    <path d="M98.402,158.679 L104.963,112.661 C106.644,101.598 116.398,92.253 126.261,92.253 H167.816 C177.678,92.253 187.431,101.599 189.099,112.573 L195.672,158.678 L177.719,169.823 C175.284,171.335 173.645,173.846 173.241,176.681 L162.941,249.059 C162.936,249.096 162.93,249.134 162.925,249.171 C162.682,251.034 161.026,252.397 160.255,252.397 H133.818 C133.047,252.397 131.39,251.035 131.147,249.171 C131.142,249.134 131.136,249.096 131.131,249.059 L120.829,176.681 C120.426,173.845 118.786,171.334 116.352,169.823 L98.402,158.679 Z"/>
  </g>
  <line stroke="black" stroke-width="1.5" x1="260.0" x2="279.84921417395395" y1="232.67949192431124" y2="198.29964448470668"/>
  <line stroke="black" stroke-width="1.5" x1="262.1650635094611" x2="257.8349364905389" y1="233.92949192431124" y2="231.42949192431124"/>
  <line stroke="black" stroke-width="1.5" x1="282.01427768341506" x2="277.68415066449285" y1="199.54964448470668" y2="197.04964448470668"/>
  <g fill="grey" transform="translate(287.5983243292039,199.11339067553985) scale(0.1)">
    <circle cx="147.037" cy="70.0" r="20.104"/>
    <path d="M98.402,158.679 L104.963,112.661 C106.644,101.598 116.398,92.253 126.261,92.253 H167.816 C177.678,92.253 187.431,101.599 189.099,112.573 L195.672,158.678 L177.719,169.823 C175.284,171.335 173.645,173.846 173.241,176.681 L162.941,249.059 C162.936,249.096 162.93,249.134 162.925,249.171 C162.682,251.034 161.026,252.397 160.255,252.397 H133.818 C133.047,252.397 131.39,251.035 131.147,249.171 C131.142,249.134 131.136,249.096 131.131,249.059 L120.829,176.681 C120.426,173.845 118.786,171.334 116.352,169.823 L98.402,158.679 Z"/>
  </g>
  <line stroke="black" stroke-width="1.5" x1="265.32088886237955" x2="286.98113546682436" y1="237.14424780626922" y2="218.96914286927063"/>
  <line stroke="black" stroke-width="1.5" x1="266.9278578865959" x2="263.7139198381632" y1="239.05935891406668" y2="235.22913669847176"/>
  <line stroke="black" stroke-width="1.5" x1="288.5881044910407" x2="285.374166442608" y1="220.88425397706808" y2="217.05403176147317"/>
  <g fill="grey" transform="translate(326.8795370091731,209.66642777091405) scale(0.1)">
    <circle cx="147.037" cy="70.0" r="20.104"/>
    <path d="M98.402,158.679 L104.963,112.661 C106.644,101.598 116.398,92.253 126.261,92.253 H167.816 C177.678,92.253 187.431,101.599 189.099,112.573 L195.672,158.678 L177.719,169.823 C175.284,171.335 173.645,173.846 173.241,176.681 L162.941,249.059 C162.936,249.096 162.93,249.134 162.925,249.171 C162.682,251.034 161.026,252.397 160.255,252.397 H133.818 C133.047,252.397 131.39,251.035 131.147,249.171 C131.142,249.134 131.136,249.096 131.131,249.059 L120.829,176.681 C120.426,173.845 118.786,171.334 116.352,169.823 L98.402,158.679 Z"/>
  </g>
  <line stroke="black" stroke-width="1.5" x1="268.79385241571816" x2="322.78938459345494" y1="243.1595971334866" y2="223.50683063742744"/>
  <line stroke="black" stroke-width="1.5" x1="269.64890277403236" x2="267.93880205740396" y1="245.5088286854514" y2="240.81036558152184"/>
  <line stroke="black" stroke-width="1.5" x1="323.64443495176914" x2="321.93433423514074" y1="225.85606218939222" y2="221.15759908546266"/>
  <text fill="blue" font-size="15px" font-weight="bold" x="237.40841155468627" y="271.8092709352806">✓</text>
</svg>
