<?xml version="1.0" encoding="utf-8" ?>
<svg xmlns="http://www.w3.org/2000/svg" xmlns:ev="http://www.w3.org/2001/xml-events" xmlns:xlink="http://www.w3.org/1999/xlink" baseProfile="full" height="500px" version="1.1" width="500px">
  <defs>
    <marker id="start_arrow" markerHeight="6" markerWidth="6" orient="auto" refX="3" refY="3">
      <path d="M6,0 L0,3 L6,6 Z" fill="black"/>
    </marker>
    <marker id="end_arrow" markerHeight="6" markerWidth="6" orient="auto" refX="3" refY="3">
      <path d="M0,0 L6,3 L0,6 Z" fill="black"/>
    </marker>
  </defs>
  <g fill="blue" transform="translate(235.2963,243.0) scale(0.1)">
    <circle cx="147.037" cy="70" r="20.104"/>
    <path d="M98.402,158.679 L104.963,112.661 C106.644,101.598 116.398,92.253 126.261,92.253 H167.816 C177.678,92.253 187.431,101.599 189.114,112.661 L195.687,158.766 L177.734,169.911 C175.299,171.423 173.66,173.934 173.256,176.769 L162.956,249.147 C162.951,249.184 162.945,249.222 162.94,249.259 C162.697,251.122 161.041,252.485 160.27,252.485 H133.833 C133.062,252.485 131.406,251.123 131.163,249.259 C131.158,249.222 131.152,249.184 131.147,249.147 L120.845,176.769 C120.442,173.933 118.802,171.423 116.368,169.911 L98.402,158.679 Z"/>
  </g>
  <g fill="grey" transform="translate(349.4198447962245,243.0) scale(0.1)">
    <circle cx="147.037" cy="70" r="20.104"/>
    <path d="M98.402,158.679 L104.963,112.661 C106.644,101.598 116.398,92.253 126.261,92.253 H167.816 C177.678,92.253 187.431,101.599 189.114,112.661 L195.687,158.766 L177.734,169.911 C175.299,171.423 173.66,173.934 173.256,176.769 L162.956,249.147 C162.951,249.184 162.945,249.222 162.94,249.259 C162.697,251.122 161.041,252.485 160.27,252.485 H133.833 C133.062,252.485 131.406,251.123 131.163,249.259 C131.158,249.222 131.152,249.184 131.147,249.147 L120.845,176.769 C120.442,173.933 118.802,171.423 116.368,169.911 L98.402,158.679 Z"/>
  </g>
  <line stroke="black" stroke-width="1.5" x1="270.0" x2="344.1235447962245" y1="250.0" y2="250.0"/>
  <line stroke="black" stroke-width="1.5" x1="270.0" x2="270.0" y1="252.5" y2="247.5"/>
  <line stroke="black" stroke-width="1.5" x1="344.1235447962245" x2="344.1235447962245" y1="252.5" y2="247.5"/>
  <g fill="grey" transform="translate(356.1836020068151,286.99937963122966) scale(0.1)">
    <circle cx="147.037" cy="70" r="20.104"/>
    <path d="M98.402,158.679 L104.963,112.661 C106.644,101.598 116.398,92.253 126.261,92.253 H167.816 C177.678,92.253 187.431,101.599 189.114,112.661 L195.687,158.766 L177.734,169.911 C175.299,171.423 173.66,173.934 173.256,176.769 L162.956,249.147 C162.951,249.184 162.945,249.222 162.94,249.259 C162.697,251.122 161.041,252.485 160.27,252.485 H133.833 C133.062,252.485 131.406,251.123 131.163,249.259 C131.158,249.222 131.152,249.184 131.147,249.147 L120.845,176.769 C120.442,173.933 118.802,171.423 116.368,169.911 L98.402,158.679 Z"/>
  </g>
  <line stroke="black" stroke-width="1.5" x1="268.79385241571816" x2="352.09344959109694" y1="256.8404028665134" y2="287.1589767647163"/>
  <line stroke="black" stroke-width="1.5" x1="267.938802057404" x2="269.6489027740323" y1="259.18963441847814" y2="254.4911713145486"/>
  <line stroke="black" stroke-width="1.5" x1="351.2383992327828" x2="352.9484999494111" y1="289.508208316681" y2="284.8097452127515"/>
  <g fill="grey" transform="translate(342.6529784650376,333.08294930443094) scale(0.1)">
    <circle cx="147.037" cy="70" r="20.104"/>
    <path d="M98.402,158.679 L104.963,112.661 C106.644,101.598 116.398,92.253 126.261,92.253 H167.816 C177.678,92.253 187.431,101.599 189.114,112.661 L195.687,158.766 L177.734,169.911 C175.299,171.423 173.66,173.934 173.256,176.769 L162.956,249.147 C162.951,249.184 162.945,249.222 162.94,249.259 C162.697,251.122 161.041,252.485 160.27,252.485 H133.833 C133.062,252.485 131.406,251.123 131.163,249.259 C131.158,249.222 131.152,249.184 131.147,249.147 L120.845,176.769 C120.442,173.933 118.802,171.423 116.368,169.911 L98.402,158.679 Z"/>
  </g>
  <line stroke="black" stroke-width="1.5" x1="265.32088886237955" x2="342.0357896026581" y1="262.8557521937308" y2="327.22719711070016"/>
  <line stroke="black" stroke-width="1.5" x1="263.7139198381632" x2="266.9278578865959" y1="264.7708633015282" y2="260.94064108593335"/>
  <line stroke="black" stroke-width="1.5" x1="340.42882057844173" x2="343.64275862687447" y1="329.1423082184976" y2="325.31208600290273"/>
  <g fill="grey" transform="translate(311.9765660046944,375.8141166580273) scale(0.1)">
    <circle cx="147.037" cy="70" r="20.104"/>
    <path d="M98.402,158.679 L104.963,112.661 C106.644,101.598 116.398,92.253 126.261,92.253 H167.816 C177.678,92.253 187.431,101.599 189.114,112.661 L195.687,158.766 L177.734,169.911 C175.299,171.423 173.66,173.934 173.256,176.769 L162.956,249.147 C162.951,249.184 162.945,249.222 162.94,249.259 C162.697,251.122 161.041,252.485 160.27,252.485 H133.833 C133.062,252.485 131.406,251.123 131.163,249.259 C131.158,249.222 131.152,249.184 131.147,249.147 L120.845,176.769 C120.442,173.933 118.802,171.423 116.368,169.911 L98.402,158.679 Z"/>
  </g>
  <line stroke="black" stroke-width="1.5" x1="260.0" x2="316.68026600469443" y1="267.3205080756888" y2="365.4936085823385"/>
  <line stroke="black" stroke-width="1.5" x1="257.8349364905389" x2="262.1650635094611" y1="268.5705080756888" y2="266.0705080756888"/>
  <line stroke="black" stroke-width="1.5" x1="314.5152024952333" x2="318.84532951415554" y1="366.7436085823385" y2="364.2436085823385"/>
  <g fill="grey" transform="translate(267.92702826424886,428.0580559659204) scale(0.1)">
    <circle cx="147.037" cy="70" r="20.104"/>
    <path d="M98.402,158.679 L104.963,112.661 C106.644,101.598 116.398,92.253 126.261,92.253 H167.816 C177.678,92.253 187.431,101.599 189.114,112.661 L195.687,158.766 L177.734,169.911 C175.299,171.423 173.66,173.934 173.256,176.769 L162.956,249.147 C162.951,249.184 162.945,249.222 162.94,249.259 C162.697,251.122 161.041,252.485 160.27,252.485 H133.833 C133.062,252.485 131.406,251.123 131.163,249.259 C131.158,249.222 131.152,249.184 131.147,249.147 L120.845,176.769 C120.442,173.933 118.802,171.423 116.368,169.911 L98.402,158.679 Z"/>
  </g>
  <line stroke="black" stroke-width="1.5" x1="253.47296355333862" x2="279.15776471091027" y1="269.69615506024417" y2="415.36190090567624"/>
  <line stroke="black" stroke-width="1.5" x1="251.0109441708081" x2="255.93498293586913" y1="270.1302755044115" y2="269.26203461607685"/>
  <line stroke="black" stroke-width="1.5" x1="276.69574532837976" x2="281.6197840934408" y1="415.79602134984356" y2="414.9277804615089"/>
  <g fill="grey" transform="translate(207.63258898556347,399.8887013393321) scale(0.1)">
    <circle cx="147.037" cy="70" r="20.104"/>
    <path d="M98.402,158.679 L104.963,112.661 C106.644,101.598 116.398,92.253 126.261,92.253 H167.816 C177.678,92.253 187.431,101.599 189.114,112.661 L195.687,158.766 L177.734,169.911 C175.299,171.423 173.66,173.934 173.256,176.769 L162.956,249.147 C162.951,249.184 162.945,249.222 162.94,249.259 C162.697,251.122 161.041,252.485 160.27,252.485 H133.833 C133.062,252.485 131.406,251.123 131.163,249.259 C131.158,249.222 131.152,249.184 131.147,249.147 L120.845,176.769 C120.442,173.933 118.802,171.423 116.368,169.911 L98.402,158.679 Z"/>
  </g>
  <line stroke="black" stroke-width="1.5" x1="246.52703644666138" x2="225.8092525389021" y1="269.69615506024417" y2="387.19254627908794"/>
  <line stroke="black" stroke-width="1.5" x1="244.06501706413087" x2="248.9890558291919" y1="269.26203461607685" y2="270.1302755044115"/>
  <line stroke="black" stroke-width="1.5" x1="223.34723315637157" x2="228.2712719214326" y1="386.7584258349206" y2="387.62666672325525"/>
  <g fill="grey" transform="translate(179.9721971138076,338.82415708205326) scale(0.1)">
    <circle cx="147.037" cy="70" r="20.104"/>
    <path d="M98.402,158.679 L104.963,112.661 C106.644,101.598 116.398,92.253 126.261,92.253 H167.816 C177.678,92.253 187.431,101.599 189.114,112.661 L195.687,158.766 L177.734,169.911 C175.299,171.423 173.66,173.934 173.256,176.769 L162.956,249.147 C162.951,249.184 162.945,249.222 162.94,249.259 C162.697,251.122 161.041,252.485 160.27,252.485 H133.833 C133.062,252.485 131.406,251.123 131.163,249.259 C131.158,249.222 131.152,249.184 131.147,249.147 L120.845,176.769 C120.442,173.933 118.802,171.423 116.368,169.911 L98.402,158.679 Z"/>
  </g>
  <line stroke="black" stroke-width="1.5" x1="240.0" x2="204.6758971138076" y1="267.3205080756888" y2="328.50364900636447"/>
  <line stroke="black" stroke-width="1.5" x1="237.8349364905389" x2="242.1650635094611" y1="266.0705080756888" y2="268.5705080756888"/>
  <line stroke="black" stroke-width="1.5" x1="202.5108336043465" x2="206.8409606232687" y1="327.25364900636447" y2="329.75364900636447"/>
  <g fill="grey" transform="translate(99.82007450568099,356.6780508455731) scale(0.1)">
    <circle cx="147.037" cy="70" r="20.104"/>
    <path d="M98.402,158.679 L104.963,112.661 C106.644,101.598 116.398,92.253 126.261,92.253 H167.816 C177.678,92.253 187.431,101.599 189.114,112.661 L195.687,158.766 L177.734,169.911 C175.299,171.423 173.66,173.934 173.256,176.769 L162.956,249.147 C162.951,249.184 162.945,249.222 162.94,249.259 C162.697,251.122 161.041,252.485 160.27,252.485 H133.833 C133.062,252.485 131.406,251.123 131.163,249.259 C131.158,249.222 131.152,249.184 131.147,249.147 L120.845,176.769 C120.442,173.933 118.802,171.423 116.368,169.911 L98.402,158.679 Z"/>
  </g>
  <line stroke="black" stroke-width="1.5" x1="234.67911113762045" x2="129.84466336806054" y1="262.8557521937308" y2="350.82229865184235"/>
  <line stroke="black" stroke-width="1.5" x1="233.0721421134041" x2="236.2860801618368" y1="260.94064108593335" y2="264.7708633015282"/>
  <line stroke="black" stroke-width="1.5" x1="128.2376943438442" x2="131.45163239227688" y1="348.9071875440449" y2="352.7374097596398"/>
  <g fill="grey" transform="translate(90.90074199341106,295.5556850746572) scale(0.1)">
    <circle cx="147.037" cy="70" r="20.104"/>
    <path d="M98.402,158.679 L104.963,112.661 C106.644,101.598 116.398,92.253 126.261,92.253 H167.816 C177.678,92.253 187.431,101.599 189.114,112.661 L195.687,158.766 L177.734,169.911 C175.299,171.423 173.66,173.934 173.256,176.769 L162.956,249.147 C162.951,249.184 162.945,249.222 162.94,249.259 C162.697,251.122 161.041,252.485 160.27,252.485 H133.833 C133.062,252.485 131.406,251.123 131.163,249.259 C131.158,249.222 131.152,249.184 131.147,249.147 L120.845,176.769 C120.442,173.933 118.802,171.423 116.368,169.911 L98.402,158.679 Z"/>
  </g>
  <line stroke="black" stroke-width="1.5" x1="231.20614758428184" x2="124.39829440912922" y1="256.8404028665134" y2="295.71528220814383"/>
  <line stroke="black" stroke-width="1.5" x1="230.35109722596766" x2="232.061197942596" y1="254.4911713145486" y2="259.18963441847814"/>
  <line stroke="black" stroke-width="1.5" x1="123.54324405081505" x2="125.2533447674434" y1="293.3660506561791" y2="298.0645137601086"/>
  <g fill="grey" transform="translate(118.94322591531724,243.00000000000003) scale(0.1)">
    <circle cx="147.037" cy="70" r="20.104"/>
    <path d="M98.402,158.679 L104.963,112.661 C106.644,101.598 116.398,92.253 126.261,92.253 H167.816 C177.678,92.253 187.431,101.599 189.114,112.661 L195.687,158.766 L177.734,169.911 C175.299,171.423 173.66,173.934 173.256,176.769 L162.956,249.147 C162.951,249.184 162.945,249.222 162.94,249.259 C162.697,251.122 161.041,252.485 160.27,252.485 H133.833 C133.062,252.485 131.406,251.123 131.163,249.259 C131.158,249.222 131.152,249.184 131.147,249.147 L120.845,176.769 C120.442,173.933 118.802,171.423 116.368,169.911 L98.402,158.679 Z"/>
  </g>
  <line stroke="black" stroke-width="1.5" x1="230.0" x2="153.64692591531724" y1="250.0" y2="250.00000000000003"/>
  <line stroke="black" stroke-width="1.5" x1="230.0" x2="230.0" y1="247.5" y2="252.5"/>
  <line stroke="black" stroke-width="1.5" x1="153.64692591531724" x2="153.64692591531724" y1="247.50000000000003" y2="252.50000000000003"/>
  <g fill="grey" transform="translate(94.97588929058526,191.92754724176461) scale(0.1)">
    <circle cx="147.037" cy="70" r="20.104"/>
    <path d="M98.402,158.679 L104.963,112.661 C106.644,101.598 116.398,92.253 126.261,92.253 H167.816 C177.678,92.253 187.431,101.599 189.114,112.661 L195.687,158.766 L177.734,169.911 C175.299,171.423 173.66,173.934 173.256,176.769 L162.956,249.147 C162.951,249.184 162.945,249.222 162.94,249.259 C162.697,251.122 161.041,252.485 160.27,252.485 H133.833 C133.062,252.485 131.406,251.123 131.163,249.259 C131.158,249.222 131.152,249.184 131.147,249.147 L120.845,176.769 C120.442,173.933 118.802,171.423 116.368,169.911 L98.402,158.679 Z"/>
  </g>
  <line stroke="black" stroke-width="1.5" x1="231.20614758428184" x2="128.47344170630342" y1="243.15959713348664" y2="205.76795010827797"/>
  <line stroke="black" stroke-width="1.5" x1="232.061197942596" x2="230.35109722596766" y1="240.81036558152186" y2="245.50882868545142"/>
  <line stroke="black" stroke-width="1.5" x1="129.3284920646176" x2="127.61839134798925" y1="203.4187185563132" y2="208.11718166024275"/>
  <g fill="grey" transform="translate(121.41753053247768,147.4443665408795) scale(0.1)">
    <circle cx="147.037" cy="70" r="20.104"/>
    <path d="M98.402,158.679 L104.963,112.661 C106.644,101.598 116.398,92.253 126.261,92.253 H167.816 C177.678,92.253 187.431,101.599 189.114,112.661 L195.687,158.766 L177.734,169.911 C175.299,171.423 173.66,173.934 173.256,176.769 L162.956,249.147 C162.951,249.184 162.945,249.222 162.94,249.259 C162.697,251.122 161.041,252.485 160.27,252.485 H133.833 C133.062,252.485 131.406,251.123 131.163,249.259 C131.158,249.222 131.152,249.184 131.147,249.147 L120.845,176.769 C120.442,173.933 118.802,171.423 116.368,169.911 L98.402,158.679 Z"/>
  </g>
  <line stroke="black" stroke-width="1.5" x1="234.67911113762045" x2="151.44211939485723" y1="237.14424780626922" y2="167.3001187346103"/>
  <line stroke="black" stroke-width="1.5" x1="236.2860801618368" x2="233.0721421134041" y1="235.22913669847176" y2="239.05935891406668"/>
  <line stroke="black" stroke-width="1.5" x1="153.04908841907357" x2="149.8351503706409" y1="165.38500762681284" y2="169.21522984240775"/>
  <g fill="grey" transform="translate(167.30250815837684,125.23129793104658) scale(0.1)">
    <circle cx="147.037" cy="70" r="20.104"/>
    <path d="M98.402,158.679 L104.963,112.661 C106.644,101.598 116.398,92.253 126.261,92.253 H167.816 C177.678,92.253 187.431,101.599 189.114,112.661 L195.687,158.766 L177.734,169.911 C175.299,171.423 173.66,173.934 173.256,176.769 L162.956,249.147 C162.951,249.184 162.945,249.222 162.94,249.259 C162.697,251.122 161.041,252.485 160.27,252.485 H133.833 C133.062,252.485 131.406,251.123 131.163,249.259 C131.158,249.222 131.152,249.184 131.147,249.147 L120.845,176.769 C120.442,173.933 118.802,171.423 116.368,169.911 L98.402,158.679 Z"/>
  </g>
  <line stroke="black" stroke-width="1.5" x1="240.0" x2="192.00620815837684" y1="232.67949192431124" y2="149.55180600673535"/>
  <line stroke="black" stroke-width="1.5" x1="242.1650635094611" x2="237.8349364905389" y1="231.42949192431124" y2="233.92949192431124"/>
  <line stroke="black" stroke-width="1.5" x1="194.17127166783794" x2="189.84114464891573" y1="148.30180600673535" y2="150.80180600673535"/>
  <g fill="grey" transform="translate(204.84009835467438,70.27429731425377) scale(0.1)">
    <circle cx="147.037" cy="70" r="20.104"/>
    <path d="M98.402,158.679 L104.963,112.661 C106.644,101.598 116.398,92.253 126.261,92.253 H167.816 C177.678,92.253 187.431,101.599 189.114,112.661 L195.687,158.766 L177.734,169.911 C175.299,171.423 173.66,173.934 173.256,176.769 L162.956,249.147 C162.951,249.184 162.945,249.222 162.94,249.259 C162.697,251.122 161.041,252.485 160.27,252.485 H133.833 C133.062,252.485 131.406,251.123 131.163,249.259 C131.158,249.222 131.152,249.184 131.147,249.147 L120.845,176.769 C120.442,173.933 118.802,171.423 116.368,169.911 L98.402,158.679 Z"/>
  </g>
  <line stroke="black" stroke-width="1.5" x1="246.52703644666138" x2="223.016761908013" y1="230.30384493975583" y2="96.97045237449794"/>
  <line stroke="black" stroke-width="1.5" x1="248.9890558291919" x2="244.06501706413087" y1="229.8697244955885" y2="230.73796538392315"/>
  <line stroke="black" stroke-width="1.5" x1="225.4787812905435" x2="220.55474252548248" y1="96.53633193033062" y2="97.40457281866526"/>
  <g fill="grey" transform="translate(263.15493127040577,85.00585095671389) scale(0.1)">
    <circle cx="147.037" cy="70" r="20.104"/>
    <path d="M98.402,158.679 L104.963,112.661 C106.644,101.598 116.398,92.253 126.261,92.253 H167.816 C177.678,92.253 187.431,101.599 189.114,112.661 L195.687,158.766 L177.734,169.911 C175.299,171.423 173.66,173.934 173.256,176.769 L162.956,249.147 C162.951,249.184 162.945,249.222 162.94,249.259 C162.697,251.122 161.041,252.485 160.27,252.485 H133.833 C133.062,252.485 131.406,251.123 131.163,249.259 C131.158,249.222 131.152,249.184 131.147,249.147 L120.845,176.769 C120.442,173.933 118.802,171.423 116.368,169.911 L98.402,158.679 Z"/>
  </g>
  <line stroke="black" stroke-width="1.5" x1="253.4729635533386" x2="274.3856677170672" y1="230.30384493975583" y2="111.70200601695805"/>
  <line stroke="black" stroke-width="1.5" x1="255.9349829358691" x2="251.01094417080807" y1="230.73796538392315" y2="229.8697244955885"/>
  <line stroke="black" stroke-width="1.5" x1="276.8476870995977" x2="271.92364833453667" y1="112.13612646112537" y2="111.26788557279073"/>
  <g fill="grey" transform="translate(285.6901780271946,155.71524286647008) scale(0.1)">
    <circle cx="147.037" cy="70" r="20.104"/>
    <path d="M98.402,158.679 L104.963,112.661 C106.644,101.598 116.398,92.253 126.261,92.253 H167.816 C177.678,92.253 187.431,101.599 189.114,112.661 L195.687,158.766 L177.734,169.911 C175.299,171.423 173.66,173.934 173.256,176.769 L162.956,249.147 C162.951,249.184 162.945,249.222 162.94,249.259 C162.697,251.122 161.041,252.485 160.27,252.485 H133.833 C133.062,252.485 131.406,251.123 131.163,249.259 C131.158,249.222 131.152,249.184 131.147,249.147 L120.845,176.769 C120.442,173.933 118.802,171.423 116.368,169.911 L98.402,158.679 Z"/>
  </g>
  <line stroke="blue" stroke-width="1.5" x1="260.0" x2="290.3938780271946" y1="232.67949192431124" y2="180.03575094215884"/>
  <line stroke="black" stroke-width="1.5" x1="262.1650635094611" x2="257.8349364905389" y1="233.92949192431124" y2="231.42949192431124"/>
  <line stroke="black" stroke-width="1.5" x1="292.5589415366557" x2="288.2288145177335" y1="181.28575094215884" y2="178.78575094215884"/>
  <g fill="grey" transform="translate(373.1729019463262,127.30779415886093) scale(0.1)">
    <circle cx="147.037" cy="70" r="20.104"/>
    <path d="M98.402,158.679 L104.963,112.661 C106.644,101.598 116.398,92.253 126.261,92.253 H167.816 C177.678,92.253 187.431,101.599 189.114,112.661 L195.687,158.766 L177.734,169.911 C175.299,171.423 173.66,173.934 173.256,176.769 L162.956,249.147 C162.951,249.184 162.945,249.222 162.94,249.259 C162.697,251.122 161.041,252.485 160.27,252.485 H133.833 C133.062,252.485 131.406,251.123 131.163,249.259 C131.158,249.222 131.152,249.184 131.147,249.147 L120.845,176.769 C120.442,173.933 118.802,171.423 116.368,169.911 L98.402,158.679 Z"/>
  </g>
  <line stroke="black" stroke-width="1.5" x1="265.32088886237955" x2="372.55571308394667" y1="237.14424780626922" y2="147.1635463525917"/>
  <line stroke="black" stroke-width="1.5" x1="266.9278578865959" x2="263.7139198381632" y1="239.05935891406668" y2="235.22913669847176"/>
  <line stroke="black" stroke-width="1.5" x1="374.16268210816304" x2="370.9487440597303" y1="149.07865746038917" y2="145.24843524479425"/>
  <g fill="grey" transform="translate(385.23553465637497,188.42658163642398) scale(0.1)">
    <circle cx="147.037" cy="70" r="20.104"/>
    <path d="M98.402,158.679 L104.963,112.661 C106.644,101.598 116.398,92.253 126.261,92.253 H167.816 C177.678,92.253 187.431,101.599 189.114,112.661 L195.687,158.766 L177.734,169.911 C175.299,171.423 173.66,173.934 173.256,176.769 L162.956,249.147 C162.951,249.184 162.945,249.222 162.94,249.259 C162.697,251.122 161.041,252.485 160.27,252.485 H133.833 C133.062,252.485 131.406,251.123 131.163,249.259 C131.158,249.222 131.152,249.184 131.147,249.147 L120.845,176.769 C120.442,173.933 118.802,171.423 116.368,169.911 L98.402,158.679 Z"/>
  </g>
  <line stroke="black" stroke-width="1.5" x1="268.79385241571816" x2="381.14538224065683" y1="243.1595971334866" y2="202.26698450293736"/>
  <line stroke="black" stroke-width="1.5" x1="269.64890277403236" x2="267.93880205740396" y1="245.5088286854514" y2="240.81036558152184"/>
  <line stroke="black" stroke-width="1.5" x1="382.00043259897103" x2="380.2903318823426" y1="204.61621605490214" y2="199.91775295097258"/>
  <text fill="blue" font-size="15px" font-weight="bold" x="275.19693901359733" y="206.35762143323504">✓</text>
</svg>
