<?xml version="1.0" encoding="utf-8" ?>
<svg xmlns="http://www.w3.org/2000/svg" xmlns:ev="http://www.w3.org/2001/xml-events" xmlns:xlink="http://www.w3.org/1999/xlink" baseProfile="full" height="500px" version="1.1" width="500px">
  <defs>
    <marker id="start_arrow" markerHeight="6" markerWidth="6" orient="auto" refX="3" refY="3">
      <path d="M6,0 L0,3 L6,6 Z" fill="black"/>
    </marker>
    <marker id="end_arrow" markerHeight="6" markerWidth="6" orient="auto" refX="3" refY="3">
      <path d="M0,0 L6,3 L0,6 Z" fill="black"/>
    </marker>
  </defs>
  <circle cx="250" cy="230" fill="blue" r="5"/>
  <line stroke="blue" stroke-width="2" x1="250" x2="250" y1="235" y2="250"/>
  <line stroke="blue" stroke-width="2" x1="250" x2="245" y1="240" y2="245"/>
  <line stroke="blue" stroke-width="2" x1="250" x2="255" y1="240" y2="245"/>
  <line stroke="blue" stroke-width="2" x1="250" x2="245" y1="250" y2="260"/>
  <line stroke="blue" stroke-width="2" x1="250" x2="255" y1="250" y2="260"/>
  <circle cx="426.7592094019121" cy="230.0" fill="grey" r="5"/>
  <line stroke="grey" stroke-width="2" x1="426.7592094019121" x2="426.7592094019121" y1="235.0" y2="250.0"/>
  <line stroke="grey" stroke-width="2" x1="426.7592094019121" x2="421.7592094019121" y1="240.0" y2="245.0"/>
  <line stroke="grey" stroke-width="2" x1="426.7592094019121" x2="431.7592094019121" y1="240.0" y2="245.0"/>
  <line stroke="grey" stroke-width="2" x1="426.7592094019121" x2="421.7592094019121" y1="250.0" y2="260.0"/>
  <line stroke="grey" stroke-width="2" x1="426.7592094019121" x2="431.7592094019121" y1="250.0" y2="260.0"/>
  <line marker-end="url(#end_arrow)" marker-start="url(#start_arrow)" stroke="black" stroke-width="1.5" x1="280.0" x2="396.7592094019121" y1="250.0" y2="250.0"/>
  <circle cx="358.58796140557826" cy="269.52278575127764" fill="grey" r="5"/>
  <line stroke="grey" stroke-width="2" x1="358.58796140557826" x2="358.58796140557826" y1="274.52278575127764" y2="289.52278575127764"/>
  <line stroke="grey" stroke-width="2" x1="358.58796140557826" x2="353.58796140557826" y1="279.52278575127764" y2="284.52278575127764"/>
  <line stroke="grey" stroke-width="2" x1="358.58796140557826" x2="363.58796140557826" y1="279.52278575127764" y2="284.52278575127764"/>
  <line stroke="grey" stroke-width="2" x1="358.58796140557826" x2="353.58796140557826" y1="289.52278575127764" y2="299.52278575127764"/>
  <line stroke="grey" stroke-width="2" x1="358.58796140557826" x2="363.58796140557826" y1="289.52278575127764" y2="299.52278575127764"/>
  <line marker-end="url(#end_arrow)" marker-start="url(#start_arrow)" stroke="black" stroke-width="1.5" x1="278.1907786235773" x2="330.397182782001" y1="260.2606042997701" y2="279.26218145150756"/>
  <circle cx="327.16422391187797" cy="294.7484718245379" fill="grey" r="5"/>
  <line stroke="grey" stroke-width="2" x1="327.16422391187797" x2="327.16422391187797" y1="299.7484718245379" y2="314.7484718245379"/>
  <line stroke="grey" stroke-width="2" x1="327.16422391187797" x2="322.16422391187797" y1="304.7484718245379" y2="309.7484718245379"/>
  <line stroke="grey" stroke-width="2" x1="327.16422391187797" x2="332.16422391187797" y1="304.7484718245379" y2="309.7484718245379"/>
  <line stroke="grey" stroke-width="2" x1="327.16422391187797" x2="322.16422391187797" y1="314.7484718245379" y2="324.7484718245379"/>
  <line stroke="grey" stroke-width="2" x1="327.16422391187797" x2="332.16422391187797" y1="314.7484718245379" y2="324.7484718245379"/>
  <line marker-end="url(#end_arrow)" marker-start="url(#start_arrow)" stroke="blue" stroke-width="1.5" x1="272.9813332935693" x2="304.18289061830865" y1="269.2836282905962" y2="295.4648435339417"/>
  <circle cx="323.3348513311619" cy="357.0196884710825" fill="grey" r="5"/>
  <line stroke="grey" stroke-width="2" x1="323.3348513311619" x2="323.3348513311619" y1="362.0196884710825" y2="377.0196884710825"/>
  <line stroke="grey" stroke-width="2" x1="323.3348513311619" x2="318.3348513311619" y1="367.0196884710825" y2="372.0196884710825"/>
  <line stroke="grey" stroke-width="2" x1="323.3348513311619" x2="328.3348513311619" y1="367.0196884710825" y2="372.0196884710825"/>
  <line stroke="grey" stroke-width="2" x1="323.3348513311619" x2="318.3348513311619" y1="377.0196884710825" y2="387.0196884710825"/>
  <line stroke="grey" stroke-width="2" x1="323.3348513311619" x2="328.3348513311619" y1="377.0196884710825" y2="387.0196884710825"/>
  <line marker-end="url(#end_arrow)" marker-start="url(#start_arrow)" stroke="black" stroke-width="1.5" x1="265.0" x2="308.3348513311619" y1="275.98076211353316" y2="351.0389263575493"/>
  <circle cx="275.3409563246123" cy="373.71570489550027" fill="grey" r="5"/>
  <line stroke="grey" stroke-width="2" x1="275.3409563246123" x2="275.3409563246123" y1="378.71570489550027" y2="393.71570489550027"/>
  <line stroke="grey" stroke-width="2" x1="275.3409563246123" x2="270.3409563246123" y1="383.71570489550027" y2="388.71570489550027"/>
  <line stroke="grey" stroke-width="2" x1="275.3409563246123" x2="280.3409563246123" y1="383.71570489550027" y2="388.71570489550027"/>
  <line stroke="grey" stroke-width="2" x1="275.3409563246123" x2="270.3409563246123" y1="393.71570489550027" y2="403.71570489550027"/>
  <line stroke="grey" stroke-width="2" x1="275.3409563246123" x2="280.3409563246123" y1="393.71570489550027" y2="403.71570489550027"/>
  <line marker-end="url(#end_arrow)" marker-start="url(#start_arrow)" stroke="black" stroke-width="1.5" x1="255.2094453300079" x2="270.1315109946044" y1="279.5442325903662" y2="364.17147230513405"/>
  <circle cx="226.49937395727102" cy="363.2786732257633" fill="grey" r="5"/>
  <line stroke="grey" stroke-width="2" x1="226.49937395727102" x2="226.49937395727102" y1="368.2786732257633" y2="383.2786732257633"/>
  <line stroke="grey" stroke-width="2" x1="226.49937395727102" x2="221.49937395727102" y1="373.2786732257633" y2="378.2786732257633"/>
  <line stroke="grey" stroke-width="2" x1="226.49937395727102" x2="231.49937395727102" y1="373.2786732257633" y2="378.2786732257633"/>
  <line stroke="grey" stroke-width="2" x1="226.49937395727102" x2="221.49937395727102" y1="383.2786732257633" y2="393.2786732257633"/>
  <line stroke="grey" stroke-width="2" x1="226.49937395727102" x2="231.49937395727102" y1="383.2786732257633" y2="393.2786732257633"/>
  <line marker-end="url(#end_arrow)" marker-start="url(#start_arrow)" stroke="black" stroke-width="1.5" x1="244.79055466999208" x2="231.70881928727894" y1="279.5442325903662" y2="353.7344406353971"/>
  <circle cx="150.921669590814" cy="401.6087021978068" fill="grey" r="5"/>
  <line stroke="grey" stroke-width="2" x1="150.921669590814" x2="150.921669590814" y1="406.6087021978068" y2="421.6087021978068"/>
  <line stroke="grey" stroke-width="2" x1="150.921669590814" x2="145.921669590814" y1="411.6087021978068" y2="416.6087021978068"/>
  <line stroke="grey" stroke-width="2" x1="150.921669590814" x2="155.921669590814" y1="411.6087021978068" y2="416.6087021978068"/>
  <line stroke="grey" stroke-width="2" x1="150.921669590814" x2="145.921669590814" y1="421.6087021978068" y2="431.6087021978068"/>
  <line stroke="grey" stroke-width="2" x1="150.921669590814" x2="155.921669590814" y1="421.6087021978068" y2="431.6087021978068"/>
  <line marker-end="url(#end_arrow)" marker-start="url(#start_arrow)" stroke="black" stroke-width="1.5" x1="235.0" x2="165.921669590814" y1="275.98076211353316" y2="395.62794008427363"/>
  <circle cx="159.0229196597926" cy="306.33883455905385" fill="grey" r="5"/>
  <line stroke="grey" stroke-width="2" x1="159.0229196597926" x2="159.0229196597926" y1="311.33883455905385" y2="326.33883455905385"/>
  <line stroke="grey" stroke-width="2" x1="159.0229196597926" x2="154.0229196597926" y1="316.33883455905385" y2="321.33883455905385"/>
  <line stroke="grey" stroke-width="2" x1="159.0229196597926" x2="164.0229196597926" y1="316.33883455905385" y2="321.33883455905385"/>
  <line stroke="grey" stroke-width="2" x1="159.0229196597926" x2="154.0229196597926" y1="326.33883455905385" y2="336.33883455905385"/>
  <line stroke="grey" stroke-width="2" x1="159.0229196597926" x2="164.0229196597926" y1="326.33883455905385" y2="336.33883455905385"/>
  <line marker-end="url(#end_arrow)" marker-start="url(#start_arrow)" stroke="black" stroke-width="1.5" x1="227.01866670643065" x2="182.00425295336194" y1="269.2836282905962" y2="307.05520626845765"/>
  <circle cx="109.58344567912513" cy="281.10744617102176" fill="grey" r="5"/>
  <line stroke="grey" stroke-width="2" x1="109.58344567912513" x2="109.58344567912513" y1="286.10744617102176" y2="301.10744617102176"/>
  <line stroke="grey" stroke-width="2" x1="109.58344567912513" x2="104.58344567912513" y1="291.10744617102176" y2="296.10744617102176"/>
  <line stroke="grey" stroke-width="2" x1="109.58344567912513" x2="114.58344567912513" y1="291.10744617102176" y2="296.10744617102176"/>
  <line stroke="grey" stroke-width="2" x1="109.58344567912513" x2="104.58344567912513" y1="301.10744617102176" y2="311.10744617102176"/>
  <line stroke="grey" stroke-width="2" x1="109.58344567912513" x2="114.58344567912513" y1="301.10744617102176" y2="311.10744617102176"/>
  <line marker-end="url(#end_arrow)" marker-start="url(#start_arrow)" stroke="black" stroke-width="1.5" x1="221.80922137642276" x2="137.77422430270238" y1="260.2606042997701" y2="290.8468418712517"/>
  <circle cx="137.86888955934603" cy="230.0" fill="grey" r="5"/>
  <line stroke="grey" stroke-width="2" x1="137.86888955934603" x2="137.86888955934603" y1="235.0" y2="250.0"/>
  <line stroke="grey" stroke-width="2" x1="137.86888955934603" x2="132.86888955934603" y1="240.0" y2="245.0"/>
  <line stroke="grey" stroke-width="2" x1="137.86888955934603" x2="142.86888955934603" y1="240.0" y2="245.0"/>
  <line stroke="grey" stroke-width="2" x1="137.86888955934603" x2="132.86888955934603" y1="250.0" y2="260.0"/>
  <line stroke="grey" stroke-width="2" x1="137.86888955934603" x2="142.86888955934603" y1="250.0" y2="260.0"/>
  <line marker-end="url(#end_arrow)" marker-start="url(#start_arrow)" stroke="black" stroke-width="1.5" x1="220.0" x2="167.86888955934603" y1="250.0" y2="250.0"/>
  <circle cx="72.24839909066489" cy="165.30370817583682" fill="grey" r="5"/>
  <line stroke="grey" stroke-width="2" x1="72.24839909066489" x2="72.24839909066489" y1="170.30370817583682" y2="185.30370817583682"/>
  <line stroke="grey" stroke-width="2" x1="72.24839909066489" x2="67.24839909066489" y1="175.30370817583682" y2="180.30370817583682"/>
  <line stroke="grey" stroke-width="2" x1="72.24839909066489" x2="77.24839909066489" y1="175.30370817583682" y2="180.30370817583682"/>
  <line stroke="grey" stroke-width="2" x1="72.24839909066489" x2="67.24839909066489" y1="185.30370817583682" y2="195.30370817583682"/>
  <line stroke="grey" stroke-width="2" x1="72.24839909066489" x2="77.24839909066489" y1="185.30370817583682" y2="195.30370817583682"/>
  <line marker-end="url(#end_arrow)" marker-start="url(#start_arrow)" stroke="black" stroke-width="1.5" x1="221.80922137642276" x2="100.43917771424213" y1="239.73939570022995" y2="195.56431247560687"/>
  <circle cx="158.79302928121186" cy="153.4682645090679" fill="grey" r="5"/>
  <line stroke="grey" stroke-width="2" x1="158.79302928121186" x2="158.79302928121186" y1="158.4682645090679" y2="173.4682645090679"/>
  <line stroke="grey" stroke-width="2" x1="158.79302928121186" x2="153.79302928121186" y1="163.4682645090679" y2="168.4682645090679"/>
  <line stroke="grey" stroke-width="2" x1="158.79302928121186" x2="163.79302928121186" y1="163.4682645090679" y2="168.4682645090679"/>
  <line stroke="grey" stroke-width="2" x1="158.79302928121186" x2="153.79302928121186" y1="173.4682645090679" y2="183.4682645090679"/>
  <line stroke="grey" stroke-width="2" x1="158.79302928121186" x2="163.79302928121186" y1="173.4682645090679" y2="183.4682645090679"/>
  <line marker-end="url(#end_arrow)" marker-start="url(#start_arrow)" stroke="black" stroke-width="1.5" x1="227.01866670643065" x2="181.7743625747812" y1="230.71637170940383" y2="192.75189279966406"/>
  <circle cx="150.369280613488" cy="57.43453202792389" fill="grey" r="5"/>
  <line stroke="grey" stroke-width="2" x1="150.369280613488" x2="150.369280613488" y1="62.43453202792389" y2="77.4345320279239"/>
  <line stroke="grey" stroke-width="2" x1="150.369280613488" x2="145.369280613488" y1="67.4345320279239" y2="72.4345320279239"/>
  <line stroke="grey" stroke-width="2" x1="150.369280613488" x2="155.369280613488" y1="67.4345320279239" y2="72.4345320279239"/>
  <line stroke="grey" stroke-width="2" x1="150.369280613488" x2="145.369280613488" y1="77.4345320279239" y2="87.4345320279239"/>
  <line stroke="grey" stroke-width="2" x1="150.369280613488" x2="155.369280613488" y1="77.4345320279239" y2="87.4345320279239"/>
  <line marker-end="url(#end_arrow)" marker-start="url(#start_arrow)" stroke="black" stroke-width="1.5" x1="235.0" x2="165.369280613488" y1="224.01923788646684" y2="103.41529414145705"/>
  <circle cx="226.1555766909423" cy="94.77155558807226" fill="grey" r="5"/>
  <line stroke="grey" stroke-width="2" x1="226.1555766909423" x2="226.1555766909423" y1="99.77155558807226" y2="114.77155558807226"/>
  <line stroke="grey" stroke-width="2" x1="226.1555766909423" x2="221.1555766909423" y1="104.77155558807226" y2="109.77155558807226"/>
  <line stroke="grey" stroke-width="2" x1="226.1555766909423" x2="231.1555766909423" y1="104.77155558807226" y2="109.77155558807226"/>
  <line stroke="grey" stroke-width="2" x1="226.1555766909423" x2="221.1555766909423" y1="114.77155558807226" y2="124.77155558807226"/>
  <line stroke="grey" stroke-width="2" x1="226.1555766909423" x2="231.1555766909423" y1="114.77155558807226" y2="124.77155558807226"/>
  <line marker-end="url(#end_arrow)" marker-start="url(#start_arrow)" stroke="black" stroke-width="1.5" x1="244.7905546699921" x2="231.3650220209502" y1="220.45576740963375" y2="144.3157881784385"/>
  <circle cx="272.2937852713048" cy="103.56566090038785" fill="grey" r="5"/>
  <line stroke="grey" stroke-width="2" x1="272.2937852713048" x2="272.2937852713048" y1="108.56566090038785" y2="123.56566090038785"/>
  <line stroke="grey" stroke-width="2" x1="272.2937852713048" x2="267.2937852713048" y1="113.56566090038785" y2="118.56566090038785"/>
  <line stroke="grey" stroke-width="2" x1="272.2937852713048" x2="277.2937852713048" y1="113.56566090038785" y2="118.56566090038785"/>
  <line stroke="grey" stroke-width="2" x1="272.2937852713048" x2="267.2937852713048" y1="123.56566090038785" y2="133.56566090038785"/>
  <line stroke="grey" stroke-width="2" x1="272.2937852713048" x2="277.2937852713048" y1="123.56566090038785" y2="133.56566090038785"/>
  <line marker-end="url(#end_arrow)" marker-start="url(#start_arrow)" stroke="black" stroke-width="1.5" x1="255.2094453300079" x2="267.0843399412969" y1="220.45576740963375" y2="153.1098934907541"/>
  <circle cx="325.71120121716774" cy="98.86435278979485" fill="grey" r="5"/>
  <line stroke="grey" stroke-width="2" x1="325.71120121716774" x2="325.71120121716774" y1="103.86435278979485" y2="118.86435278979485"/>
  <line stroke="grey" stroke-width="2" x1="325.71120121716774" x2="320.71120121716774" y1="108.86435278979485" y2="113.86435278979485"/>
  <line stroke="grey" stroke-width="2" x1="325.71120121716774" x2="330.71120121716774" y1="108.86435278979485" y2="113.86435278979485"/>
  <line stroke="grey" stroke-width="2" x1="325.71120121716774" x2="320.71120121716774" y1="118.86435278979485" y2="128.86435278979485"/>
  <line stroke="grey" stroke-width="2" x1="325.71120121716774" x2="330.71120121716774" y1="118.86435278979485" y2="128.86435278979485"/>
  <line marker-end="url(#end_arrow)" marker-start="url(#start_arrow)" stroke="black" stroke-width="1.5" x1="265.0" x2="310.71120121716774" y1="224.01923788646684" y2="144.845114903328"/>
  <circle cx="356.95159912437117" cy="140.25695262091978" fill="grey" r="5"/>
  <line stroke="grey" stroke-width="2" x1="356.95159912437117" x2="356.95159912437117" y1="145.25695262091978" y2="160.25695262091978"/>
  <line stroke="grey" stroke-width="2" x1="356.95159912437117" x2="351.95159912437117" y1="150.25695262091978" y2="155.25695262091978"/>
  <line stroke="grey" stroke-width="2" x1="356.95159912437117" x2="361.95159912437117" y1="150.25695262091978" y2="155.25695262091978"/>
  <line stroke="grey" stroke-width="2" x1="356.95159912437117" x2="351.95159912437117" y1="160.25695262091978" y2="170.25695262091978"/>
  <line stroke="grey" stroke-width="2" x1="356.95159912437117" x2="361.95159912437117" y1="160.25695262091978" y2="170.25695262091978"/>
  <line marker-end="url(#end_arrow)" marker-start="url(#start_arrow)" stroke="black" stroke-width="1.5" x1="272.9813332935693" x2="333.97026583080185" y1="230.7163717094038" y2="179.54058091151597"/>
  <circle cx="351.9249177965942" cy="192.90236379201014" fill="grey" r="5"/>
  <line stroke="grey" stroke-width="2" x1="351.9249177965942" x2="351.9249177965942" y1="197.90236379201014" y2="212.90236379201014"/>
  <line stroke="grey" stroke-width="2" x1="351.9249177965942" x2="346.9249177965942" y1="202.90236379201014" y2="207.90236379201014"/>
  <line stroke="grey" stroke-width="2" x1="351.9249177965942" x2="356.9249177965942" y1="202.90236379201014" y2="207.90236379201014"/>
  <line stroke="grey" stroke-width="2" x1="351.9249177965942" x2="346.9249177965942" y1="212.90236379201014" y2="222.90236379201014"/>
  <line stroke="grey" stroke-width="2" x1="351.9249177965942" x2="356.9249177965942" y1="212.90236379201014" y2="222.90236379201014"/>
  <line marker-end="url(#end_arrow)" marker-start="url(#start_arrow)" stroke="black" stroke-width="1.5" x1="278.1907786235772" x2="323.73413917301696" y1="239.73939570022992" y2="223.16296809178021"/>
  <text fill="blue" font-size="15px" font-weight="bold" x="288.582111955939" y="282.37423591226894">✓</text>
</svg>
