<?xml version="1.0" encoding="utf-8" ?>
<svg xmlns="http://www.w3.org/2000/svg" xmlns:ev="http://www.w3.org/2001/xml-events" xmlns:xlink="http://www.w3.org/1999/xlink" baseProfile="full" height="500px" version="1.1" width="500px">
  <defs>
    <marker id="start_arrow" markerHeight="6" markerWidth="6" orient="auto" refX="3" refY="3">
      <path d="M6,0 L0,3 L6,6 Z" fill="black"/>
    </marker>
    <marker id="end_arrow" markerHeight="6" markerWidth="6" orient="auto" refX="3" refY="3">
      <path d="M0,0 L6,3 L0,6 Z" fill="black"/>
    </marker>
  </defs>
  <circle cx="250" cy="230" fill="blue" r="5"/>
  <line stroke="blue" stroke-width="2" x1="250" x2="250" y1="235" y2="250"/>
  <line stroke="blue" stroke-width="2" x1="250" x2="245" y1="240" y2="245"/>
  <line stroke="blue" stroke-width="2" x1="250" x2="255" y1="240" y2="245"/>
  <line stroke="blue" stroke-width="2" x1="250" x2="245" y1="250" y2="260"/>
  <line stroke="blue" stroke-width="2" x1="250" x2="255" y1="250" y2="260"/>
  <circle cx="408.84845715019253" cy="230.0" fill="grey" r="5"/>
  <line stroke="grey" stroke-width="2" x1="408.84845715019253" x2="408.84845715019253" y1="235.0" y2="250.0"/>
  <line stroke="grey" stroke-width="2" x1="408.84845715019253" x2="403.84845715019253" y1="240.0" y2="245.0"/>
  <line stroke="grey" stroke-width="2" x1="408.84845715019253" x2="413.84845715019253" y1="240.0" y2="245.0"/>
  <line stroke="grey" stroke-width="2" x1="408.84845715019253" x2="403.84845715019253" y1="250.0" y2="260.0"/>
  <line stroke="grey" stroke-width="2" x1="408.84845715019253" x2="413.84845715019253" y1="250.0" y2="260.0"/>
  <line stroke="black" stroke-width="1.5" x1="270.0" x2="388.84845715019253" y1="250.0" y2="250.0"/>
  <line stroke="black" stroke-width="1.5" x1="270.0" x2="270.0" y1="252.5" y2="247.5"/>
  <line stroke="black" stroke-width="1.5" x1="388.84845715019253" x2="388.84845715019253" y1="252.5" y2="247.5"/>
  <circle cx="420.468457846037" cy="292.0454445372203" fill="grey" r="5"/>
  <line stroke="grey" stroke-width="2" x1="420.468457846037" x2="420.468457846037" y1="297.0454445372203" y2="312.0454445372203"/>
  <line stroke="grey" stroke-width="2" x1="420.468457846037" x2="415.468457846037" y1="302.0454445372203" y2="307.0454445372203"/>
  <line stroke="grey" stroke-width="2" x1="420.468457846037" x2="425.468457846037" y1="302.0454445372203" y2="307.0454445372203"/>
  <line stroke="grey" stroke-width="2" x1="420.468457846037" x2="415.468457846037" y1="312.0454445372203" y2="322.0454445372203"/>
  <line stroke="grey" stroke-width="2" x1="420.468457846037" x2="425.468457846037" y1="312.0454445372203" y2="322.0454445372203"/>
  <line stroke="black" stroke-width="1.5" x1="268.79385241571816" x2="401.6746054303188" y1="256.8404028665134" y2="305.2050416707069"/>
  <line stroke="black" stroke-width="1.5" x1="267.938802057404" x2="269.6489027740323" y1="259.18963441847814" y2="254.4911713145486"/>
  <line stroke="black" stroke-width="1.5" x1="400.8195550720047" x2="402.52965578863297" y1="307.55427322267167" y2="302.85581011874217"/>
  <circle cx="353.0933854907448" cy="316.50562174210114" fill="grey" r="5"/>
  <line stroke="grey" stroke-width="2" x1="353.0933854907448" x2="353.0933854907448" y1="321.50562174210114" y2="336.50562174210114"/>
  <line stroke="grey" stroke-width="2" x1="353.0933854907448" x2="348.0933854907448" y1="326.50562174210114" y2="331.50562174210114"/>
  <line stroke="grey" stroke-width="2" x1="353.0933854907448" x2="358.0933854907448" y1="326.50562174210114" y2="331.50562174210114"/>
  <line stroke="grey" stroke-width="2" x1="353.0933854907448" x2="348.0933854907448" y1="336.50562174210114" y2="346.50562174210114"/>
  <line stroke="grey" stroke-width="2" x1="353.0933854907448" x2="358.0933854907448" y1="336.50562174210114" y2="346.50562174210114"/>
  <line stroke="black" stroke-width="1.5" x1="265.32088886237955" x2="337.7724966283653" y1="262.8557521937308" y2="323.64986954837036"/>
  <line stroke="black" stroke-width="1.5" x1="263.7139198381632" x2="266.9278578865959" y1="264.7708633015282" y2="260.94064108593335"/>
  <line stroke="black" stroke-width="1.5" x1="336.1655276041489" x2="339.37946565258164" y1="325.5649806561678" y2="321.73475844057293"/>
  <circle cx="328.7950287168794" cy="366.4769931214838" fill="grey" r="5"/>
  <line stroke="grey" stroke-width="2" x1="328.7950287168794" x2="328.7950287168794" y1="371.4769931214838" y2="386.4769931214838"/>
  <line stroke="grey" stroke-width="2" x1="328.7950287168794" x2="323.7950287168794" y1="376.4769931214838" y2="381.4769931214838"/>
  <line stroke="grey" stroke-width="2" x1="328.7950287168794" x2="333.7950287168794" y1="376.4769931214838" y2="381.4769931214838"/>
  <line stroke="grey" stroke-width="2" x1="328.7950287168794" x2="323.7950287168794" y1="386.4769931214838" y2="396.4769931214838"/>
  <line stroke="grey" stroke-width="2" x1="328.7950287168794" x2="333.7950287168794" y1="386.4769931214838" y2="396.4769931214838"/>
  <line stroke="black" stroke-width="1.5" x1="260.0" x2="318.7950287168794" y1="267.3205080756888" y2="369.156485045795"/>
  <line stroke="black" stroke-width="1.5" x1="257.8349364905389" x2="262.1650635094611" y1="268.5705080756888" y2="266.0705080756888"/>
  <line stroke="black" stroke-width="1.5" x1="316.6299652074183" x2="320.9600922263405" y1="370.406485045795" y2="367.906485045795"/>
  <circle cx="282.27057548863183" cy="413.0155280772784" fill="grey" r="5"/>
  <line stroke="grey" stroke-width="2" x1="282.27057548863183" x2="282.27057548863183" y1="418.0155280772784" y2="433.0155280772784"/>
  <line stroke="grey" stroke-width="2" x1="282.27057548863183" x2="277.27057548863183" y1="423.0155280772784" y2="428.0155280772784"/>
  <line stroke="grey" stroke-width="2" x1="282.27057548863183" x2="287.27057548863183" y1="423.0155280772784" y2="428.0155280772784"/>
  <line stroke="grey" stroke-width="2" x1="282.27057548863183" x2="277.27057548863183" y1="433.0155280772784" y2="443.0155280772784"/>
  <line stroke="grey" stroke-width="2" x1="282.27057548863183" x2="287.27057548863183" y1="433.0155280772784" y2="443.0155280772784"/>
  <line stroke="black" stroke-width="1.5" x1="253.47296355333862" x2="278.7976119352932" y1="269.69615506024417" y2="413.31937301703425"/>
  <line stroke="black" stroke-width="1.5" x1="251.0109441708081" x2="255.93498293586913" y1="270.1302755044115" y2="269.26203461607685"/>
  <line stroke="black" stroke-width="1.5" x1="276.3355925527627" x2="281.25963131782373" y1="413.7534934612016" y2="412.88525257286693"/>
  <circle cx="222.53282490113355" cy="385.7740907744575" fill="grey" r="5"/>
  <line stroke="grey" stroke-width="2" x1="222.53282490113355" x2="222.53282490113355" y1="390.7740907744575" y2="405.7740907744575"/>
  <line stroke="grey" stroke-width="2" x1="222.53282490113355" x2="217.53282490113355" y1="395.7740907744575" y2="400.7740907744575"/>
  <line stroke="grey" stroke-width="2" x1="222.53282490113355" x2="227.53282490113355" y1="395.7740907744575" y2="400.7740907744575"/>
  <line stroke="grey" stroke-width="2" x1="222.53282490113355" x2="217.53282490113355" y1="405.7740907744575" y2="415.7740907744575"/>
  <line stroke="grey" stroke-width="2" x1="222.53282490113355" x2="227.53282490113355" y1="405.7740907744575" y2="415.7740907744575"/>
  <line stroke="black" stroke-width="1.5" x1="246.52703644666138" x2="226.00578845447217" y1="269.69615506024417" y2="386.0779357142133"/>
  <line stroke="black" stroke-width="1.5" x1="244.06501706413087" x2="248.9890558291919" y1="269.26203461607685" y2="270.1302755044115"/>
  <line stroke="black" stroke-width="1.5" x1="223.54376907194165" x2="228.46780783700268" y1="385.643815270046" y2="386.51205615838063"/>
  <circle cx="151.9526550010506" cy="399.8229830854147" fill="grey" r="5"/>
  <line stroke="grey" stroke-width="2" x1="151.9526550010506" x2="151.9526550010506" y1="404.8229830854147" y2="419.8229830854147"/>
  <line stroke="grey" stroke-width="2" x1="151.9526550010506" x2="146.9526550010506" y1="409.8229830854147" y2="414.8229830854147"/>
  <line stroke="grey" stroke-width="2" x1="151.9526550010506" x2="156.9526550010506" y1="409.8229830854147" y2="414.8229830854147"/>
  <line stroke="grey" stroke-width="2" x1="151.9526550010506" x2="146.9526550010506" y1="419.8229830854147" y2="429.8229830854147"/>
  <line stroke="grey" stroke-width="2" x1="151.9526550010506" x2="156.9526550010506" y1="419.8229830854147" y2="429.8229830854147"/>
  <line stroke="black" stroke-width="1.5" x1="240.0" x2="161.9526550010506" y1="267.3205080756888" y2="402.5024750097259"/>
  <line stroke="black" stroke-width="1.5" x1="237.8349364905389" x2="242.1650635094611" y1="266.0705080756888" y2="268.5705080756888"/>
  <line stroke="black" stroke-width="1.5" x1="159.7875914915895" x2="164.1177185105117" y1="401.2524750097259" y2="403.7524750097259"/>
  <circle cx="102.87111411108825" cy="353.45579388491" fill="grey" r="5"/>
  <line stroke="grey" stroke-width="2" x1="102.87111411108825" x2="102.87111411108825" y1="358.45579388491" y2="373.45579388491"/>
  <line stroke="grey" stroke-width="2" x1="102.87111411108825" x2="97.87111411108825" y1="363.45579388491" y2="368.45579388491"/>
  <line stroke="grey" stroke-width="2" x1="102.87111411108825" x2="107.87111411108825" y1="363.45579388491" y2="368.45579388491"/>
  <line stroke="grey" stroke-width="2" x1="102.87111411108825" x2="97.87111411108825" y1="373.45579388491" y2="383.45579388491"/>
  <line stroke="grey" stroke-width="2" x1="102.87111411108825" x2="107.87111411108825" y1="373.45579388491" y2="383.45579388491"/>
  <line stroke="black" stroke-width="1.5" x1="234.67911113762045" x2="118.19200297346781" y1="262.8557521937308" y2="360.60004169117923"/>
  <line stroke="black" stroke-width="1.5" x1="233.0721421134041" x2="236.2860801618368" y1="260.94064108593335" y2="264.7708633015282"/>
  <line stroke="black" stroke-width="1.5" x1="116.58503394925145" x2="119.79897199768416" y1="358.6849305833818" y2="362.51515279897666"/>
  <circle cx="130.75333625638638" cy="273.40223613822616" fill="grey" r="5"/>
  <line stroke="grey" stroke-width="2" x1="130.75333625638638" x2="130.75333625638638" y1="278.40223613822616" y2="293.40223613822616"/>
  <line stroke="grey" stroke-width="2" x1="130.75333625638638" x2="125.75333625638638" y1="283.40223613822616" y2="288.40223613822616"/>
  <line stroke="grey" stroke-width="2" x1="130.75333625638638" x2="135.75333625638638" y1="283.40223613822616" y2="288.40223613822616"/>
  <line stroke="grey" stroke-width="2" x1="130.75333625638638" x2="125.75333625638638" y1="293.40223613822616" y2="303.40223613822616"/>
  <line stroke="grey" stroke-width="2" x1="130.75333625638638" x2="135.75333625638638" y1="293.40223613822616" y2="303.40223613822616"/>
  <line stroke="black" stroke-width="1.5" x1="231.20614758428184" x2="149.54718867210454" y1="256.8404028665134" y2="286.56183327171277"/>
  <line stroke="black" stroke-width="1.5" x1="230.35109722596766" x2="232.061197942596" y1="254.4911713145486" y2="259.18963441847814"/>
  <line stroke="black" stroke-width="1.5" x1="148.69213831379037" x2="150.4022390304187" y1="284.212601719748" y2="288.9110648236775"/>
  <circle cx="149.36945685152037" cy="230.0" fill="grey" r="5"/>
  <line stroke="grey" stroke-width="2" x1="149.36945685152037" x2="149.36945685152037" y1="235.0" y2="250.0"/>
  <line stroke="grey" stroke-width="2" x1="149.36945685152037" x2="144.36945685152037" y1="240.0" y2="245.0"/>
  <line stroke="grey" stroke-width="2" x1="149.36945685152037" x2="154.36945685152037" y1="240.0" y2="245.0"/>
  <line stroke="grey" stroke-width="2" x1="149.36945685152037" x2="144.36945685152037" y1="250.0" y2="260.0"/>
  <line stroke="grey" stroke-width="2" x1="149.36945685152037" x2="154.36945685152037" y1="250.0" y2="260.0"/>
  <line stroke="blue" stroke-width="1.5" x1="230.0" x2="169.36945685152037" y1="250.0" y2="250.0"/>
  <line stroke="black" stroke-width="1.5" x1="230.0" x2="230.0" y1="247.5" y2="252.5"/>
  <line stroke="black" stroke-width="1.5" x1="169.36945685152037" x2="169.36945685152037" y1="247.5" y2="252.5"/>
  <circle cx="85.42555461629487" cy="170.09980055946255" fill="grey" r="5"/>
  <line stroke="grey" stroke-width="2" x1="85.42555461629487" x2="85.42555461629487" y1="175.09980055946255" y2="190.09980055946255"/>
  <line stroke="grey" stroke-width="2" x1="85.42555461629487" x2="80.42555461629487" y1="180.09980055946255" y2="185.09980055946255"/>
  <line stroke="grey" stroke-width="2" x1="85.42555461629487" x2="90.42555461629487" y1="180.09980055946255" y2="185.09980055946255"/>
  <line stroke="grey" stroke-width="2" x1="85.42555461629487" x2="80.42555461629487" y1="190.09980055946255" y2="200.09980055946255"/>
  <line stroke="grey" stroke-width="2" x1="85.42555461629487" x2="90.42555461629487" y1="190.09980055946255" y2="200.09980055946255"/>
  <line stroke="black" stroke-width="1.5" x1="231.20614758428184" x2="104.21940703201304" y1="243.15959713348664" y2="196.9402034259759"/>
  <line stroke="black" stroke-width="1.5" x1="232.061197942596" x2="230.35109722596766" y1="240.81036558152186" y2="245.50882868545142"/>
  <line stroke="black" stroke-width="1.5" x1="105.07445739032721" x2="103.36435667369886" y1="194.59097187401113" y2="199.2894349779407"/>
  <circle cx="144.77985103893056" cy="141.70981181434817" fill="grey" r="5"/>
  <line stroke="grey" stroke-width="2" x1="144.77985103893056" x2="144.77985103893056" y1="146.70981181434817" y2="161.70981181434817"/>
  <line stroke="grey" stroke-width="2" x1="144.77985103893056" x2="139.77985103893056" y1="151.70981181434817" y2="156.70981181434817"/>
  <line stroke="grey" stroke-width="2" x1="144.77985103893056" x2="149.77985103893056" y1="151.70981181434817" y2="156.70981181434817"/>
  <line stroke="grey" stroke-width="2" x1="144.77985103893056" x2="139.77985103893056" y1="161.70981181434817" y2="171.70981181434817"/>
  <line stroke="grey" stroke-width="2" x1="144.77985103893056" x2="149.77985103893056" y1="161.70981181434817" y2="171.70981181434817"/>
  <line stroke="black" stroke-width="1.5" x1="234.67911113762045" x2="160.1007399013101" y1="237.14424780626922" y2="174.56556400807895"/>
  <line stroke="black" stroke-width="1.5" x1="236.2860801618368" x2="233.0721421134041" y1="235.22913669847176" y2="239.05935891406668"/>
  <line stroke="black" stroke-width="1.5" x1="161.70770892552645" x2="158.49377087709377" y1="172.6504529002815" y2="176.4806751158764"/>
  <circle cx="179.70999503929818" cy="108.25414014379618" fill="grey" r="5"/>
  <line stroke="grey" stroke-width="2" x1="179.70999503929818" x2="179.70999503929818" y1="113.25414014379618" y2="128.25414014379618"/>
  <line stroke="grey" stroke-width="2" x1="179.70999503929818" x2="174.70999503929818" y1="118.25414014379618" y2="123.25414014379618"/>
  <line stroke="grey" stroke-width="2" x1="179.70999503929818" x2="184.70999503929818" y1="118.25414014379618" y2="123.25414014379618"/>
  <line stroke="grey" stroke-width="2" x1="179.70999503929818" x2="174.70999503929818" y1="128.25414014379618" y2="138.25414014379618"/>
  <line stroke="grey" stroke-width="2" x1="179.70999503929818" x2="184.70999503929818" y1="128.25414014379618" y2="138.25414014379618"/>
  <line stroke="black" stroke-width="1.5" x1="240.0" x2="189.70999503929818" y1="232.67949192431124" y2="145.57464821948494"/>
  <line stroke="black" stroke-width="1.5" x1="242.1650635094611" x2="237.8349364905389" y1="231.42949192431124" y2="233.92949192431124"/>
  <line stroke="black" stroke-width="1.5" x1="191.87505854875928" x2="187.54493152983707" y1="144.32464821948494" y2="146.82464821948494"/>
  <circle cx="221.77896209222888" cy="69.95054078291537" fill="grey" r="5"/>
  <line stroke="grey" stroke-width="2" x1="221.77896209222888" x2="221.77896209222888" y1="74.95054078291537" y2="89.95054078291537"/>
  <line stroke="grey" stroke-width="2" x1="221.77896209222888" x2="216.77896209222888" y1="79.95054078291537" y2="84.95054078291537"/>
  <line stroke="grey" stroke-width="2" x1="221.77896209222888" x2="226.77896209222888" y1="79.95054078291537" y2="84.95054078291537"/>
  <line stroke="grey" stroke-width="2" x1="221.77896209222888" x2="216.77896209222888" y1="89.95054078291537" y2="99.95054078291537"/>
  <line stroke="grey" stroke-width="2" x1="221.77896209222888" x2="226.77896209222888" y1="89.95054078291537" y2="99.95054078291537"/>
  <line stroke="black" stroke-width="1.5" x1="246.52703644666138" x2="225.2519256455675" y1="230.30384493975583" y2="109.64669584315953"/>
  <line stroke="black" stroke-width="1.5" x1="248.9890558291919" x2="244.06501706413087" y1="229.8697244955885" y2="230.73796538392315"/>
  <line stroke="black" stroke-width="1.5" x1="227.713945028098" x2="222.78990626303698" y1="109.21257539899221" y2="110.08081628732685"/>
  <circle cx="280.89468210308695" cy="54.787551065894036" fill="grey" r="5"/>
  <line stroke="grey" stroke-width="2" x1="280.89468210308695" x2="280.89468210308695" y1="59.787551065894036" y2="74.78755106589404"/>
  <line stroke="grey" stroke-width="2" x1="280.89468210308695" x2="275.89468210308695" y1="64.78755106589404" y2="69.78755106589404"/>
  <line stroke="grey" stroke-width="2" x1="280.89468210308695" x2="285.89468210308695" y1="64.78755106589404" y2="69.78755106589404"/>
  <line stroke="grey" stroke-width="2" x1="280.89468210308695" x2="275.89468210308695" y1="74.78755106589404" y2="84.78755106589404"/>
  <line stroke="grey" stroke-width="2" x1="280.89468210308695" x2="285.89468210308695" y1="74.78755106589404" y2="84.78755106589404"/>
  <line stroke="black" stroke-width="1.5" x1="253.4729635533386" x2="277.42171854974833" y1="230.30384493975583" y2="94.4837061261382"/>
  <line stroke="black" stroke-width="1.5" x1="255.9349829358691" x2="251.01094417080807" y1="230.73796538392315" y2="229.8697244955885"/>
  <line stroke="black" stroke-width="1.5" x1="279.88373793227885" x2="274.9596991672178" y1="94.91782657030552" y2="94.04958568197088"/>
  <circle cx="349.3217183153764" cy="57.96973758272381" fill="grey" r="5"/>
  <line stroke="grey" stroke-width="2" x1="349.3217183153764" x2="349.3217183153764" y1="62.96973758272381" y2="77.96973758272381"/>
  <line stroke="grey" stroke-width="2" x1="349.3217183153764" x2="344.3217183153764" y1="67.96973758272381" y2="72.96973758272381"/>
  <line stroke="grey" stroke-width="2" x1="349.3217183153764" x2="354.3217183153764" y1="67.96973758272381" y2="72.96973758272381"/>
  <line stroke="grey" stroke-width="2" x1="349.3217183153764" x2="344.3217183153764" y1="77.96973758272381" y2="87.96973758272381"/>
  <line stroke="grey" stroke-width="2" x1="349.3217183153764" x2="354.3217183153764" y1="77.96973758272381" y2="87.96973758272381"/>
  <line stroke="black" stroke-width="1.5" x1="260.0" x2="339.3217183153764" y1="232.67949192431124" y2="95.29024565841257"/>
  <line stroke="black" stroke-width="1.5" x1="262.1650635094611" x2="257.8349364905389" y1="233.92949192431124" y2="231.42949192431124"/>
  <line stroke="black" stroke-width="1.5" x1="341.4867818248375" x2="337.1566548059153" y1="96.54024565841257" y2="94.04024565841257"/>
  <circle cx="353.6222007608812" cy="143.0506495597665" fill="grey" r="5"/>
  <line stroke="grey" stroke-width="2" x1="353.6222007608812" x2="353.6222007608812" y1="148.0506495597665" y2="163.0506495597665"/>
  <line stroke="grey" stroke-width="2" x1="353.6222007608812" x2="348.6222007608812" y1="153.0506495597665" y2="158.0506495597665"/>
  <line stroke="grey" stroke-width="2" x1="353.6222007608812" x2="358.6222007608812" y1="153.0506495597665" y2="158.0506495597665"/>
  <line stroke="grey" stroke-width="2" x1="353.6222007608812" x2="348.6222007608812" y1="163.0506495597665" y2="173.0506495597665"/>
  <line stroke="grey" stroke-width="2" x1="353.6222007608812" x2="358.6222007608812" y1="163.0506495597665" y2="173.0506495597665"/>
  <line stroke="black" stroke-width="1.5" x1="265.32088886237955" x2="338.30131189850164" y1="237.14424780626922" y2="175.90640175349728"/>
  <line stroke="black" stroke-width="1.5" x1="266.9278578865959" x2="263.7139198381632" y1="239.05935891406668" y2="235.22913669847176"/>
  <line stroke="black" stroke-width="1.5" x1="339.908280922718" x2="336.69434287428527" y1="177.82151286129474" y2="173.99129064569982"/>
  <circle cx="348.8297788016201" cy="194.0289022570973" fill="grey" r="5"/>
  <line stroke="grey" stroke-width="2" x1="348.8297788016201" x2="348.8297788016201" y1="199.0289022570973" y2="214.0289022570973"/>
  <line stroke="grey" stroke-width="2" x1="348.8297788016201" x2="343.8297788016201" y1="204.0289022570973" y2="209.0289022570973"/>
  <line stroke="grey" stroke-width="2" x1="348.8297788016201" x2="353.8297788016201" y1="204.0289022570973" y2="209.0289022570973"/>
  <line stroke="grey" stroke-width="2" x1="348.8297788016201" x2="343.8297788016201" y1="214.0289022570973" y2="224.0289022570973"/>
  <line stroke="grey" stroke-width="2" x1="348.8297788016201" x2="353.8297788016201" y1="214.0289022570973" y2="224.0289022570973"/>
  <line stroke="black" stroke-width="1.5" x1="268.79385241571816" x2="330.0359263859019" y1="243.1595971334866" y2="220.86930512361067"/>
  <line stroke="black" stroke-width="1.5" x1="269.64890277403236" x2="267.93880205740396" y1="245.5088286854514" y2="240.81036558152184"/>
  <line stroke="black" stroke-width="1.5" x1="330.8909767442161" x2="329.1808760275877" y1="223.21853667557545" y2="218.5200735716459"/>
  <text fill="blue" font-size="15px" font-weight="bold" x="199.68472842576017" y="250.0">✓</text>
</svg>
