<?xml version="1.0" encoding="utf-8" ?>
<svg baseProfile="full" height="500px" version="1.1" width="500px" xmlns="http://www.w3.org/2000/svg" xmlns:ev="http://www.w3.org/2001/xml-events" xmlns:xlink="http://www.w3.org/1999/xlink"><defs><marker id="start_arrow" markerHeight="6" markerWidth="6" orient="auto" refX="3" refY="3"><path d="M0,0 L6,3 L0,6 Z" fill="black" /></marker><marker id="end_arrow" markerHeight="6" markerWidth="6" orient="auto" refX="3" refY="3"><path d="M0,0 L6,3 L0,6 Z" fill="black" /></marker></defs><circle cx="250" cy="230" fill="blue" r="5" /><line stroke="blue" stroke-width="2" x1="250" x2="250" y1="235" y2="250" /><line stroke="blue" stroke-width="2" x1="250" x2="245" y1="240" y2="245" /><line stroke="blue" stroke-width="2" x1="250" x2="255" y1="240" y2="245" /><line stroke="blue" stroke-width="2" x1="250" x2="245" y1="250" y2="260" /><line stroke="blue" stroke-width="2" x1="250" x2="255" y1="250" y2="260" /><circle cx="400.0" cy="230.0" fill="grey" r="5" /><line stroke="grey" stroke-width="2" x1="400.0" x2="400.0" y1="235.0" y2="250.0" /><line stroke="grey" stroke-width="2" x1="400.0" x2="395.0" y1="240.0" y2="245.0" /><line stroke="grey" stroke-width="2" x1="400.0" x2="405.0" y1="240.0" y2="245.0" /><line stroke="grey" stroke-width="2" x1="400.0" x2="395.0" y1="250.0" y2="260.0" /><line stroke="grey" stroke-width="2" x1="400.0" x2="405.0" y1="250.0" y2="260.0" /><line marker-end="url(#end_arrow)" marker-start="url(#start_arrow)" stroke="black" stroke-width="1.5" x1="300.0" x2="350.0" y1="250.0" y2="250.0" /><circle cx="356.06601717798213" cy="336.06601717798213" fill="grey" r="5" /><line stroke="grey" stroke-width="2" x1="356.06601717798213" x2="356.06601717798213" y1="341.06601717798213" y2="356.06601717798213" /><line stroke="grey" stroke-width="2" x1="356.06601717798213" x2="351.06601717798213" y1="346.06601717798213" y2="351.06601717798213" /><line stroke="grey" stroke-width="2" x1="356.06601717798213" x2="361.06601717798213" y1="346.06601717798213" y2="351.06601717798213" /><line stroke="grey" stroke-width="2" x1="356.06601717798213" x2="351.06601717798213" y1="356.06601717798213" y2="366.06601717798213" /><line stroke="grey" stroke-width="2" x1="356.06601717798213" x2="361.06601717798213" y1="356.06601717798213" y2="366.06601717798213" /><line marker-end="url(#end_arrow)" marker-start="url(#start_arrow)" stroke="black" stroke-width="1.5" x1="285.3553390593274" x2="320.71067811865476" y1="285.3553390593274" y2="320.71067811865476" /><circle cx="250.0" cy="380.0" fill="grey" r="5" /><line stroke="grey" stroke-width="2" x1="250.0" x2="250.0" y1="385.0" y2="400.0" /><line stroke="grey" stroke-width="2" x1="250.0" x2="245.0" y1="390.0" y2="395.0" /><line stroke="grey" stroke-width="2" x1="250.0" x2="255.0" y1="390.0" y2="395.0" /><line stroke="grey" stroke-width="2" x1="250.0" x2="245.0" y1="400.0" y2="410.0" /><line stroke="grey" stroke-width="2" x1="250.0" x2="255.0" y1="400.0" y2="410.0" /><line marker-end="url(#end_arrow)" marker-start="url(#start_arrow)" stroke="black" stroke-width="1.5" x1="250.0" x2="250.0" y1="300.0" y2="350.0" /><circle cx="143.93398282201787" cy="336.06601717798213" fill="grey" r="5" /><line stroke="grey" stroke-width="2" x1="143.93398282201787" x2="143.93398282201787" y1="341.06601717798213" y2="356.06601717798213" /><line stroke="grey" stroke-width="2" x1="143.93398282201787" x2="138.93398282201787" y1="346.06601717798213" y2="351.06601717798213" /><line stroke="grey" stroke-width="2" x1="143.93398282201787" x2="148.93398282201787" y1="346.06601717798213" y2="351.06601717798213" /><line stroke="grey" stroke-width="2" x1="143.93398282201787" x2="138.93398282201787" y1="356.06601717798213" y2="366.06601717798213" /><line stroke="grey" stroke-width="2" x1="143.93398282201787" x2="148.93398282201787" y1="356.06601717798213" y2="366.06601717798213" /><line marker-end="url(#end_arrow)" marker-start="url(#start_arrow)" stroke="black" stroke-width="1.5" x1="214.64466094067262" x2="179.28932188134524" y1="285.3553390593274" y2="320.71067811865476" /><circle cx="100.0" cy="230.00000000000003" fill="grey" r="5" /><line stroke="grey" stroke-width="2" x1="100.0" x2="100.0" y1="235.00000000000003" y2="250.00000000000003" /><line stroke="grey" stroke-width="2" x1="100.0" x2="95.0" y1="240.00000000000003" y2="245.00000000000003" /><line stroke="grey" stroke-width="2" x1="100.0" x2="105.0" y1="240.00000000000003" y2="245.00000000000003" /><line stroke="grey" stroke-width="2" x1="100.0" x2="95.0" y1="250.00000000000003" y2="260.0" /><line stroke="grey" stroke-width="2" x1="100.0" x2="105.0" y1="250.00000000000003" y2="260.0" /><line marker-end="url(#end_arrow)" marker-start="url(#start_arrow)" stroke="black" stroke-width="1.5" x1="200.0" x2="150.0" y1="250.0" y2="250.00000000000003" /><circle cx="143.93398282201787" cy="123.93398282201787" fill="grey" r="5" /><line stroke="grey" stroke-width="2" x1="143.93398282201787" x2="143.93398282201787" y1="128.93398282201787" y2="143.93398282201787" /><line stroke="grey" stroke-width="2" x1="143.93398282201787" x2="138.93398282201787" y1="133.93398282201787" y2="138.93398282201787" /><line stroke="grey" stroke-width="2" x1="143.93398282201787" x2="148.93398282201787" y1="133.93398282201787" y2="138.93398282201787" /><line stroke="grey" stroke-width="2" x1="143.93398282201787" x2="138.93398282201787" y1="143.93398282201787" y2="153.93398282201787" /><line stroke="grey" stroke-width="2" x1="143.93398282201787" x2="148.93398282201787" y1="143.93398282201787" y2="153.93398282201787" /><line marker-end="url(#end_arrow)" marker-start="url(#start_arrow)" stroke="black" stroke-width="1.5" x1="214.64466094067262" x2="179.28932188134524" y1="214.64466094067262" y2="179.28932188134524" /><circle cx="249.99999999999997" cy="80.0" fill="grey" r="5" /><line stroke="grey" stroke-width="2" x1="249.99999999999997" x2="249.99999999999997" y1="85.0" y2="100.0" /><line stroke="grey" stroke-width="2" x1="249.99999999999997" x2="244.99999999999997" y1="90.0" y2="95.0" /><line stroke="grey" stroke-width="2" x1="249.99999999999997" x2="254.99999999999997" y1="90.0" y2="95.0" /><line stroke="grey" stroke-width="2" x1="249.99999999999997" x2="244.99999999999997" y1="100.0" y2="110.0" /><line stroke="grey" stroke-width="2" x1="249.99999999999997" x2="254.99999999999997" y1="100.0" y2="110.0" /><line marker-end="url(#end_arrow)" marker-start="url(#start_arrow)" stroke="black" stroke-width="1.5" x1="250.0" x2="249.99999999999997" y1="200.0" y2="150.0" /><circle cx="356.0660171779821" cy="123.93398282201787" fill="grey" r="5" /><line stroke="grey" stroke-width="2" x1="356.0660171779821" x2="356.0660171779821" y1="128.93398282201787" y2="143.93398282201787" /><line stroke="grey" stroke-width="2" x1="356.0660171779821" x2="351.0660171779821" y1="133.93398282201787" y2="138.93398282201787" /><line stroke="grey" stroke-width="2" x1="356.0660171779821" x2="361.0660171779821" y1="133.93398282201787" y2="138.93398282201787" /><line stroke="grey" stroke-width="2" x1="356.0660171779821" x2="351.0660171779821" y1="143.93398282201787" y2="153.93398282201787" /><line stroke="grey" stroke-width="2" x1="356.0660171779821" x2="361.0660171779821" y1="143.93398282201787" y2="153.93398282201787" /><line marker-end="url(#end_arrow)" marker-start="url(#start_arrow)" stroke="black" stroke-width="1.5" x1="285.3553390593274" x2="320.7106781186547" y1="214.64466094067262" y2="179.28932188134524" /></svg>