<?xml version="1.0" encoding="utf-8" ?>
<svg xmlns="http://www.w3.org/2000/svg" xmlns:ev="http://www.w3.org/2001/xml-events" xmlns:xlink="http://www.w3.org/1999/xlink" baseProfile="full" height="500" version="1.1" width="500">
  <defs/>
  <line stroke="black" stroke-width="1" x1="32" x2="468" y1="468" y2="468"/>
  <line stroke="black" stroke-width="1" x1="32" x2="32" y1="468" y2="32"/>
  <text fill="black" font-size="14" text-anchor="middle" x="250.0" y="488">ΔD</text>
  <text fill="black" font-size="14" text-anchor="middle" x="12" y="250.0">ΔD</text>
  <g fill="orange" transform="translate(138.2963,154.0) scale(0.1)">
    <circle cx="147.037" cy="70.0" r="20.104"/>
    <path d="M98.402,158.679 L104.963,112.661 C106.644,101.598 116.398,92.253 126.261,92.253 L167.816,92.253 C177.678,92.253 187.431,101.599 189.099,112.573 L195.672,158.678 L177.719,169.823 C175.284,171.335 173.645,173.846 173.241,176.681 L162.941,249.059 C162.936,249.096 162.93,249.134 162.925,249.171 C162.682,251.034 161.026,252.397 160.255,252.397 L133.818,252.397 C133.047,252.397 131.39,251.035 131.147,249.171 C131.142,249.134 131.136,249.096 131.131,249.059 L120.829,176.681 C120.426,173.845 118.786,171.334 116.352,169.823 V158.679 Z"/>
  </g>
  <g fill="violet" transform="translate(339.2963,174.0) scale(0.1)">
    <circle cx="147.037" cy="70.0" r="20.104"/>
    <path d="M98.402,158.679 L104.963,112.661 C106.644,101.598 116.398,92.253 126.261,92.253 L167.816,92.253 C177.678,92.253 187.431,101.599 189.099,112.573 L195.672,158.678 L177.719,169.823 C175.284,171.335 173.645,173.846 173.241,176.681 L162.941,249.059 C162.936,249.096 162.93,249.134 162.925,249.171 C162.682,251.034 161.026,252.397 160.255,252.397 L133.818,252.397 C133.047,252.397 131.39,251.035 131.147,249.171 C131.142,249.134 131.136,249.096 131.131,249.059 L120.829,176.681 C120.426,173.845 118.786,171.334 116.352,169.823 V158.679 Z"/>
  </g>
  <g fill="cyan" transform="translate(174.2963,321.0) scale(0.1)">
    <circle cx="147.037" cy="70.0" r="20.104"/>
    <path d="M98.402,158.679 L104.963,112.661 C106.644,101.598 116.398,92.253 126.261,92.253 L167.816,92.253 C177.678,92.253 187.431,101.599 189.099,112.573 L195.672,158.678 L177.719,169.823 C175.284,171.335 173.645,173.846 173.241,176.681 L162.941,249.059 C162.936,249.096 162.93,249.134 162.925,249.171 C162.682,251.034 161.026,252.397 160.255,252.397 L133.818,252.397 C133.047,252.397 131.39,251.035 131.147,249.171 C131.142,249.134 131.136,249.096 131.131,249.059 L120.829,176.681 C120.426,173.845 118.786,171.334 116.352,169.823 V158.679 Z"/>
  </g>
  <g fill="orange" transform="translate(146.2963,177.0) scale(0.1)">
    <circle cx="147.037" cy="70.0" r="20.104"/>
    <path d="M98.402,158.679 L104.963,112.661 C106.644,101.598 116.398,92.253 126.261,92.253 L167.816,92.253 C177.678,92.253 187.431,101.599 189.099,112.573 L195.672,158.678 L177.719,169.823 C175.284,171.335 173.645,173.846 173.241,176.681 L162.941,249.059 C162.936,249.096 162.93,249.134 162.925,249.171 C162.682,251.034 161.026,252.397 160.255,252.397 L133.818,252.397 C133.047,252.397 131.39,251.035 131.147,249.171 C131.142,249.134 131.136,249.096 131.131,249.059 L120.829,176.681 C120.426,173.845 118.786,171.334 116.352,169.823 V158.679 Z"/>
  </g>
  <g fill="violet" transform="translate(297.2963,143.0) scale(0.1)">
    <circle cx="147.037" cy="70.0" r="20.104"/>
    <path d="M98.402,158.679 L104.963,112.661 C106.644,101.598 116.398,92.253 126.261,92.253 L167.816,92.253 C177.678,92.253 187.431,101.599 189.099,112.573 L195.672,158.678 L177.719,169.823 C175.284,171.335 173.645,173.846 173.241,176.681 L162.941,249.059 C162.936,249.096 162.93,249.134 162.925,249.171 C162.682,251.034 161.026,252.397 160.255,252.397 L133.818,252.397 C133.047,252.397 131.39,251.035 131.147,249.171 C131.142,249.134 131.136,249.096 131.131,249.059 L120.829,176.681 C120.426,173.845 118.786,171.334 116.352,169.823 V158.679 Z"/>
  </g>
  <g fill="cyan" transform="translate(159.2963,319.0) scale(0.1)">
    <circle cx="147.037" cy="70.0" r="20.104"/>
    <path d="M98.402,158.679 L104.963,112.661 C106.644,101.598 116.398,92.253 126.261,92.253 L167.816,92.253 C177.678,92.253 187.431,101.599 189.099,112.573 L195.672,158.678 L177.719,169.823 C175.284,171.335 173.645,173.846 173.241,176.681 L162.941,249.059 C162.936,249.096 162.93,249.134 162.925,249.171 C162.682,251.034 161.026,252.397 160.255,252.397 L133.818,252.397 C133.047,252.397 131.39,251.035 131.147,249.171 C131.142,249.134 131.136,249.096 131.131,249.059 L120.829,176.681 C120.426,173.845 118.786,171.334 116.352,169.823 V158.679 Z"/>
  </g>
  <g fill="orange" transform="translate(135.2963,182.0) scale(0.1)">
    <circle cx="147.037" cy="70.0" r="20.104"/>
    <path d="M98.402,158.679 L104.963,112.661 C106.644,101.598 116.398,92.253 126.261,92.253 L167.816,92.253 C177.678,92.253 187.431,101.599 189.099,112.573 L195.672,158.678 L177.719,169.823 C175.284,171.335 173.645,173.846 173.241,176.681 L162.941,249.059 C162.936,249.096 162.93,249.134 162.925,249.171 C162.682,251.034 161.026,252.397 160.255,252.397 L133.818,252.397 C133.047,252.397 131.39,251.035 131.147,249.171 C131.142,249.134 131.136,249.096 131.131,249.059 L120.829,176.681 C120.426,173.845 118.786,171.334 116.352,169.823 V158.679 Z"/>
  </g>
  <g fill="violet" transform="translate(304.2963,158.0) scale(0.1)">
    <circle cx="147.037" cy="70.0" r="20.104"/>
    <path d="M98.402,158.679 L104.963,112.661 C106.644,101.598 116.398,92.253 126.261,92.253 L167.816,92.253 C177.678,92.253 187.431,101.599 189.099,112.573 L195.672,158.678 L177.719,169.823 C175.284,171.335 173.645,173.846 173.241,176.681 L162.941,249.059 C162.936,249.096 162.93,249.134 162.925,249.171 C162.682,251.034 161.026,252.397 160.255,252.397 L133.818,252.397 C133.047,252.397 131.39,251.035 131.147,249.171 C131.142,249.134 131.136,249.096 131.131,249.059 L120.829,176.681 C120.426,173.845 118.786,171.334 116.352,169.823 V158.679 Z"/>
  </g>
  <g fill="cyan" transform="translate(133.2963,342.0) scale(0.1)">
    <circle cx="147.037" cy="70.0" r="20.104"/>
    <path d="M98.402,158.679 L104.963,112.661 C106.644,101.598 116.398,92.253 126.261,92.253 L167.816,92.253 C177.678,92.253 187.431,101.599 189.099,112.573 L195.672,158.678 L177.719,169.823 C175.284,171.335 173.645,173.846 173.241,176.681 L162.941,249.059 C162.936,249.096 162.93,249.134 162.925,249.171 C162.682,251.034 161.026,252.397 160.255,252.397 L133.818,252.397 C133.047,252.397 131.39,251.035 131.147,249.171 C131.142,249.134 131.136,249.096 131.131,249.059 L120.829,176.681 C120.426,173.845 118.786,171.334 116.352,169.823 V158.679 Z"/>
  </g>
  <g fill="orange" transform="translate(175.2963,155.0) scale(0.1)">
    <circle cx="147.037" cy="70.0" r="20.104"/>
    <path d="M98.402,158.679 L104.963,112.661 C106.644,101.598 116.398,92.253 126.261,92.253 L167.816,92.253 C177.678,92.253 187.431,101.599 189.099,112.573 L195.672,158.678 L177.719,169.823 C175.284,171.335 173.645,173.846 173.241,176.681 L162.941,249.059 C162.936,249.096 162.93,249.134 162.925,249.171 C162.682,251.034 161.026,252.397 160.255,252.397 L133.818,252.397 C133.047,252.397 131.39,251.035 131.147,249.171 C131.142,249.134 131.136,249.096 131.131,249.059 L120.829,176.681 C120.426,173.845 118.786,171.334 116.352,169.823 V158.679 Z"/>
  </g>
  <g fill="violet" transform="translate(298.2963,172.0) scale(0.1)">
    <circle cx="147.037" cy="70.0" r="20.104"/>
    <path d="M98.402,158.679 L104.963,112.661 C106.644,101.598 116.398,92.253 126.261,92.253 L167.816,92.253 C177.678,92.253 187.431,101.599 189.099,112.573 L195.672,158.678 L177.719,169.823 C175.284,171.335 173.645,173.846 173.241,176.681 L162.941,249.059 C162.936,249.096 162.93,249.134 162.925,249.171 C162.682,251.034 161.026,252.397 160.255,252.397 L133.818,252.397 C133.047,252.397 131.39,251.035 131.147,249.171 C131.142,249.134 131.136,249.096 131.131,249.059 L120.829,176.681 C120.426,173.845 118.786,171.334 116.352,169.823 V158.679 Z"/>
  </g>
  <g fill="cyan" transform="translate(148.2963,331.0) scale(0.1)">
    <circle cx="147.037" cy="70.0" r="20.104"/>
    <path d="M98.402,158.679 L104.963,112.661 C106.644,101.598 116.398,92.253 126.261,92.253 L167.816,92.253 C177.678,92.253 187.431,101.599 189.099,112.573 L195.672,158.678 L177.719,169.823 C175.284,171.335 173.645,173.846 173.241,176.681 L162.941,249.059 C162.936,249.096 162.93,249.134 162.925,249.171 C162.682,251.034 161.026,252.397 160.255,252.397 L133.818,252.397 C133.047,252.397 131.39,251.035 131.147,249.171 C131.142,249.134 131.136,249.096 131.131,249.059 L120.829,176.681 C120.426,173.845 118.786,171.334 116.352,169.823 V158.679 Z"/>
  </g>
  <g fill="orange" transform="translate(149.2963,141.0) scale(0.1)">
    <circle cx="147.037" cy="70.0" r="20.104"/>
    <path d="M98.402,158.679 L104.963,112.661 C106.644,101.598 116.398,92.253 126.261,92.253 L167.816,92.253 C177.678,92.253 187.431,101.599 189.099,112.573 L195.672,158.678 L177.719,169.823 C175.284,171.335 173.645,173.846 173.241,176.681 L162.941,249.059 C162.936,249.096 162.93,249.134 162.925,249.171 C162.682,251.034 161.026,252.397 160.255,252.397 L133.818,252.397 C133.047,252.397 131.39,251.035 131.147,249.171 C131.142,249.134 131.136,249.096 131.131,249.059 L120.829,176.681 C120.426,173.845 118.786,171.334 116.352,169.823 V158.679 Z"/>
  </g>
  <g fill="violet" transform="translate(329.2963,156.0) scale(0.1)">
    <circle cx="147.037" cy="70.0" r="20.104"/>
    <path d="M98.402,158.679 L104.963,112.661 C106.644,101.598 116.398,92.253 126.261,92.253 L167.816,92.253 C177.678,92.253 187.431,101.599 189.099,112.573 L195.672,158.678 L177.719,169.823 C175.284,171.335 173.645,173.846 173.241,176.681 L162.941,249.059 C162.936,249.096 162.93,249.134 162.925,249.171 C162.682,251.034 161.026,252.397 160.255,252.397 L133.818,252.397 C133.047,252.397 131.39,251.035 131.147,249.171 C131.142,249.134 131.136,249.096 131.131,249.059 L120.829,176.681 C120.426,173.845 118.786,171.334 116.352,169.823 V158.679 Z"/>
  </g>
  <g fill="cyan" transform="translate(148.2963,317.0) scale(0.1)">
    <circle cx="147.037" cy="70.0" r="20.104"/>
    <path d="M98.402,158.679 L104.963,112.661 C106.644,101.598 116.398,92.253 126.261,92.253 L167.816,92.253 C177.678,92.253 187.431,101.599 189.099,112.573 L195.672,158.678 L177.719,169.823 C175.284,171.335 173.645,173.846 173.241,176.681 L162.941,249.059 C162.936,249.096 162.93,249.134 162.925,249.171 C162.682,251.034 161.026,252.397 160.255,252.397 L133.818,252.397 C133.047,252.397 131.39,251.035 131.147,249.171 C131.142,249.134 131.136,249.096 131.131,249.059 L120.829,176.681 C120.426,173.845 118.786,171.334 116.352,169.823 V158.679 Z"/>
  </g>
  <g fill="orange" transform="translate(162.2963,177.0) scale(0.1)">
    <circle cx="147.037" cy="70.0" r="20.104"/>
    <path d="M98.402,158.679 L104.963,112.661 C106.644,101.598 116.398,92.253 126.261,92.253 L167.816,92.253 C177.678,92.253 187.431,101.599 189.099,112.573 L195.672,158.678 L177.719,169.823 C175.284,171.335 173.645,173.846 173.241,176.681 L162.941,249.059 C162.936,249.096 162.93,249.134 162.925,249.171 C162.682,251.034 161.026,252.397 160.255,252.397 L133.818,252.397 C133.047,252.397 131.39,251.035 131.147,249.171 C131.142,249.134 131.136,249.096 131.131,249.059 L120.829,176.681 C120.426,173.845 118.786,171.334 116.352,169.823 V158.679 Z"/>
  </g>
  <g fill="violet" transform="translate(321.2963,141.0) scale(0.1)">
    <circle cx="147.037" cy="70.0" r="20.104"/>
    <path d="M98.402,158.679 L104.963,112.661 C106.644,101.598 116.398,92.253 126.261,92.253 L167.816,92.253 C177.678,92.253 187.431,101.599 189.099,112.573 L195.672,158.678 L177.719,169.823 C175.284,171.335 173.645,173.846 173.241,176.681 L162.941,249.059 C162.936,249.096 162.93,249.134 162.925,249.171 C162.682,251.034 161.026,252.397 160.255,252.397 L133.818,252.397 C133.047,252.397 131.39,251.035 131.147,249.171 C131.142,249.134 131.136,249.096 131.131,249.059 L120.829,176.681 C120.426,173.845 118.786,171.334 116.352,169.823 V158.679 Z"/>
  </g>
  <g fill="cyan" transform="translate(148.2963,342.0) scale(0.1)">
    <circle cx="147.037" cy="70.0" r="20.104"/>
    <path d="M98.402,158.679 L104.963,112.661 C106.644,101.598 116.398,92.253 126.261,92.253 L167.816,92.253 C177.678,92.253 187.431,101.599 189.099,112.573 L195.672,158.678 L177.719,169.823 C175.284,171.335 173.645,173.846 173.241,176.681 L162.941,249.059 C162.936,249.096 162.93,249.134 162.925,249.171 C162.682,251.034 161.026,252.397 160.255,252.397 L133.818,252.397 C133.047,252.397 131.39,251.035 131.147,249.171 C131.142,249.134 131.136,249.096 131.131,249.059 L120.829,176.681 C120.426,173.845 118.786,171.334 116.352,169.823 V158.679 Z"/>
  </g>
</svg>
