<svg width="528" height="107" viewBox="0 0 528 107" fill="none" xmlns="http://www.w3.org/2000/svg">
<circle cx="44.9951" cy="36.7547" r="6.19454" fill="#FBB79F"/>
<path d="M37.2834 52.1779C37.2834 47.9189 40.736 44.4663 44.995 44.4663V44.4663C49.254 44.4663 52.7066 47.9189 52.7066 52.1779V61.4198C52.7066 61.8313 52.3729 62.165 51.9614 62.165H38.0287C37.6171 62.165 37.2834 61.8313 37.2834 61.4198V52.1779Z" fill="#FBB79F"/>
<circle cx="18.7133" cy="36.9326" r="6.19454" fill="#FBB79F"/>
<path d="M11.0017 52.3557C11.0017 48.0968 14.4543 44.6442 18.7133 44.6442V44.6442C22.9723 44.6442 26.4248 48.0968 26.4248 52.3557V61.5976C26.4248 62.0092 26.0912 62.3428 25.6796 62.3428H11.7469C11.3353 62.3428 11.0017 62.0092 11.0017 61.5976V52.3557Z" fill="#FBB79F"/>
<circle cx="76.7778" cy="36.7547" r="6.19454" fill="#FBB79F"/>
<path d="M69.0662 52.1779C69.0662 47.9189 72.5187 44.4663 76.7777 44.4663V44.4663C81.0367 44.4663 84.4893 47.9189 84.4893 52.1779V61.4198C84.4893 61.8313 84.1557 62.165 83.7441 62.165H69.8114C69.3998 62.165 69.0662 61.8313 69.0662 61.4198V52.1779Z" fill="#FBB79F"/>
<circle cx="96.201" cy="44.9626" r="7.06797" fill="#90CAF9"/>
<path d="M87.4021 62.5604C87.4021 57.7009 91.3415 53.7615 96.201 53.7615V53.7615C101.06 53.7615 105 57.7009 105 62.5604V73.1054C105 73.575 104.619 73.9557 104.15 73.9557H88.2524C87.7828 73.9557 87.4021 73.575 87.4021 73.1054V62.5604Z" fill="#90CAF9"/>
<circle cx="31.4134" cy="44.9626" r="7.06797" fill="#90CAF9"/>
<path d="M22.6145 62.5604C22.6145 57.7009 26.5539 53.7615 31.4134 53.7615V53.7615C36.2729 53.7615 40.2123 57.7009 40.2123 62.5604V73.1054C40.2123 73.575 39.8316 73.9557 39.362 73.9557H23.4648C22.9952 73.9557 22.6145 73.575 22.6145 73.1054V62.5604Z" fill="#90CAF9"/>
<circle cx="8.79892" cy="44.9626" r="7.06797" fill="#90CAF9"/>
<path d="M0 62.5604C0 57.7009 3.9394 53.7615 8.7989 53.7615V53.7615C13.6584 53.7615 17.5978 57.7009 17.5978 62.5604V73.1054C17.5978 73.575 17.2171 73.9557 16.7475 73.9557H0.850281C0.380684 73.9557 0 73.575 0 73.1054V62.5604Z" fill="#90CAF9"/>
<circle cx="63.8707" cy="33.3107" r="14.9745" fill="#1976D2"/>
<path d="M45.229 70.5941C45.229 60.2986 53.5752 51.9524 63.8707 51.9524V51.9524C74.1663 51.9524 82.5125 60.2986 82.5125 70.5941V92.9352C82.5125 93.9302 81.7059 94.7367 80.711 94.7367H47.0304C46.0355 94.7367 45.229 93.9302 45.229 92.9352V70.5941Z" fill="#1976D2"/>
<rect x="24.9253" y="70.738" width="12.3023" height="34.0861" rx="4" transform="rotate(30 24.9253 70.738)" fill="#0E3F71"/>
<path d="M88 43C88 63.5009 71.5924 80 51.5 80C31.4076 80 15 63.5009 15 43C15 22.4991 31.4076 6 51.5 6C71.5924 6 88 22.4991 88 43Z" stroke="#0E3F71" stroke-width="12"/>
<path d="M160.591 57.7949H149.722V50.9395H160.591C162.27 50.9395 163.638 50.666 164.692 50.1191C165.747 49.5527 166.518 48.7715 167.007 47.7754C167.495 46.7793 167.739 45.6562 167.739 44.4062C167.739 43.1367 167.495 41.9551 167.007 40.8613C166.518 39.7676 165.747 38.8887 164.692 38.2246C163.638 37.5605 162.27 37.2285 160.591 37.2285H152.768V73H143.979V30.3438H160.591C163.931 30.3438 166.792 30.9492 169.175 32.1602C171.577 33.3516 173.413 35.002 174.682 37.1113C175.952 39.2207 176.587 41.6328 176.587 44.3477C176.587 47.1016 175.952 49.4844 174.682 51.4961C173.413 53.5078 171.577 55.0605 169.175 56.1543C166.792 57.248 163.931 57.7949 160.591 57.7949ZM190.516 28V73H182.079V28H190.516ZM189.315 56.0371H187.001C187.02 53.8301 187.313 51.7988 187.88 49.9434C188.446 48.0684 189.257 46.4473 190.311 45.0801C191.366 43.6934 192.626 42.6191 194.091 41.8574C195.575 41.0957 197.216 40.7148 199.012 40.7148C200.575 40.7148 201.991 40.9395 203.26 41.3887C204.55 41.8184 205.653 42.5215 206.571 43.498C207.509 44.4551 208.231 45.7148 208.739 47.2773C209.247 48.8398 209.501 50.7344 209.501 52.9609V73H201.005V52.9023C201.005 51.4961 200.8 50.3926 200.389 49.5918C199.999 48.7715 199.423 48.1953 198.661 47.8633C197.919 47.5117 197.001 47.3359 195.907 47.3359C194.696 47.3359 193.661 47.5605 192.801 48.0098C191.962 48.459 191.288 49.084 190.78 49.8848C190.272 50.666 189.901 51.584 189.667 52.6387C189.432 53.6934 189.315 54.8262 189.315 56.0371ZM230.667 73.5859C228.206 73.5859 225.999 73.1953 224.045 72.4141C222.092 71.6133 220.432 70.5098 219.065 69.1035C217.717 67.6973 216.682 66.0664 215.96 64.2109C215.237 62.3359 214.876 60.3438 214.876 58.2344V57.0625C214.876 54.6602 215.217 52.4629 215.901 50.4707C216.585 48.4785 217.561 46.75 218.831 45.2852C220.12 43.8203 221.682 42.6973 223.518 41.916C225.354 41.1152 227.424 40.7148 229.729 40.7148C231.975 40.7148 233.967 41.0859 235.706 41.8281C237.444 42.5703 238.899 43.625 240.071 44.9922C241.262 46.3594 242.161 48 242.766 49.9141C243.372 51.8086 243.674 53.918 243.674 56.2422V59.7578H218.479V54.1328H235.383V53.4883C235.383 52.3164 235.169 51.2715 234.739 50.3535C234.329 49.416 233.704 48.6738 232.864 48.127C232.024 47.5801 230.95 47.3066 229.641 47.3066C228.528 47.3066 227.571 47.5508 226.77 48.0391C225.969 48.5273 225.315 49.2109 224.807 50.0898C224.319 50.9688 223.948 52.0039 223.694 53.1953C223.46 54.3672 223.342 55.6562 223.342 57.0625V58.2344C223.342 59.5039 223.518 60.6758 223.87 61.75C224.241 62.8242 224.758 63.752 225.422 64.5332C226.106 65.3145 226.926 65.9199 227.883 66.3496C228.86 66.7793 229.963 66.9941 231.194 66.9941C232.717 66.9941 234.133 66.7012 235.442 66.1152C236.77 65.5098 237.913 64.6016 238.87 63.3906L242.971 67.8438C242.307 68.8008 241.399 69.7188 240.247 70.5977C239.114 71.4766 237.747 72.1992 236.145 72.7656C234.544 73.3125 232.717 73.5859 230.667 73.5859ZM256.901 48.0684V73H248.463V41.3008H256.373L256.901 48.0684ZM255.67 56.0371H253.385C253.385 53.6934 253.688 51.584 254.293 49.709C254.899 47.8145 255.748 46.2031 256.842 44.875C257.936 43.5273 259.235 42.502 260.739 41.7988C262.262 41.0762 263.961 40.7148 265.836 40.7148C267.321 40.7148 268.678 40.9297 269.909 41.3594C271.139 41.7891 272.194 42.4727 273.073 43.4102C273.971 44.3477 274.655 45.5879 275.123 47.1309C275.612 48.6738 275.856 50.5586 275.856 52.7852V73H267.36V52.7559C267.36 51.3496 267.164 50.2559 266.774 49.4746C266.383 48.6934 265.807 48.1465 265.045 47.834C264.303 47.502 263.385 47.3359 262.291 47.3359C261.159 47.3359 260.172 47.5605 259.332 48.0098C258.512 48.459 257.829 49.084 257.282 49.8848C256.754 50.666 256.354 51.584 256.08 52.6387C255.807 53.6934 255.67 54.8262 255.67 56.0371ZM281.084 57.4727V56.8574C281.084 54.5332 281.416 52.3945 282.08 50.4414C282.744 48.4688 283.711 46.7598 284.981 45.3145C286.25 43.8691 287.813 42.7461 289.668 41.9453C291.524 41.125 293.653 40.7148 296.055 40.7148C298.457 40.7148 300.596 41.125 302.471 41.9453C304.346 42.7461 305.918 43.8691 307.188 45.3145C308.477 46.7598 309.453 48.4688 310.117 50.4414C310.781 52.3945 311.114 54.5332 311.114 56.8574V57.4727C311.114 59.7773 310.781 61.916 310.117 63.8887C309.453 65.8418 308.477 67.5508 307.188 69.0156C305.918 70.4609 304.356 71.584 302.5 72.3848C300.645 73.1855 298.516 73.5859 296.114 73.5859C293.711 73.5859 291.572 73.1855 289.697 72.3848C287.842 71.584 286.27 70.4609 284.981 69.0156C283.711 67.5508 282.744 65.8418 282.08 63.8887C281.416 61.916 281.084 59.7773 281.084 57.4727ZM289.522 56.8574V57.4727C289.522 58.8008 289.639 60.041 289.873 61.1934C290.108 62.3457 290.479 63.3613 290.987 64.2402C291.514 65.0996 292.197 65.7734 293.037 66.2617C293.877 66.75 294.903 66.9941 296.114 66.9941C297.285 66.9941 298.291 66.75 299.131 66.2617C299.971 65.7734 300.645 65.0996 301.153 64.2402C301.66 63.3613 302.031 62.3457 302.266 61.1934C302.52 60.041 302.647 58.8008 302.647 57.4727V56.8574C302.647 55.5684 302.52 54.3574 302.266 53.2246C302.031 52.0723 301.651 51.0566 301.123 50.1777C300.615 49.2793 299.942 48.5762 299.102 48.0684C298.262 47.5605 297.246 47.3066 296.055 47.3066C294.864 47.3066 293.848 47.5605 293.008 48.0684C292.188 48.5762 291.514 49.2793 290.987 50.1777C290.479 51.0566 290.108 52.0723 289.873 53.2246C289.639 54.3574 289.522 55.5684 289.522 56.8574ZM333.1 51.3789V58H316.547V51.3789H333.1ZM340.818 30.3438H356.726C359.988 30.3438 362.791 30.832 365.135 31.8086C367.498 32.7852 369.314 34.2305 370.584 36.1445C371.853 38.0586 372.488 40.4121 372.488 43.2051C372.488 45.4902 372.098 47.4531 371.316 49.0938C370.555 50.7148 369.471 52.0723 368.064 53.166C366.678 54.2402 365.047 55.0996 363.172 55.7441L360.389 57.209H346.56L346.502 50.3535H356.785C358.328 50.3535 359.607 50.0801 360.623 49.5332C361.639 48.9863 362.4 48.2246 362.908 47.248C363.435 46.2715 363.699 45.1387 363.699 43.8496C363.699 42.4824 363.445 41.3008 362.937 40.3047C362.43 39.3086 361.658 38.5469 360.623 38.0195C359.588 37.4922 358.289 37.2285 356.726 37.2285H349.607V73H340.818V30.3438ZM364.666 73L354.939 53.9863L364.226 53.9277L374.07 72.5898V73H364.666ZM395.998 65.8516V51.7305C395.998 50.7148 395.832 49.8457 395.5 49.123C395.168 48.3809 394.65 47.8047 393.947 47.3945C393.263 46.9844 392.375 46.7793 391.281 46.7793C390.344 46.7793 389.533 46.9453 388.849 47.2773C388.166 47.5898 387.638 48.0488 387.267 48.6543C386.896 49.2402 386.711 49.9336 386.711 50.7344H378.273C378.273 49.3867 378.586 48.1074 379.211 46.8965C379.836 45.6855 380.744 44.6211 381.935 43.7031C383.127 42.7656 384.543 42.0332 386.183 41.5059C387.844 40.9785 389.699 40.7148 391.75 40.7148C394.211 40.7148 396.398 41.125 398.312 41.9453C400.226 42.7656 401.73 43.9961 402.824 45.6367C403.937 47.2773 404.494 49.3281 404.494 51.7891V65.3535C404.494 67.0918 404.601 68.5176 404.816 69.6309C405.031 70.7246 405.344 71.6816 405.754 72.502V73H397.228C396.818 72.1406 396.506 71.0664 396.291 69.7773C396.095 68.4688 395.998 67.1602 395.998 65.8516ZM397.111 53.6934L397.17 58.4688H392.453C391.34 58.4688 390.373 58.5957 389.552 58.8496C388.732 59.1035 388.058 59.4648 387.531 59.9336C387.004 60.3828 386.613 60.9102 386.359 61.5156C386.125 62.1211 386.008 62.7852 386.008 63.5078C386.008 64.2305 386.174 64.8848 386.506 65.4707C386.838 66.0371 387.316 66.4863 387.941 66.8184C388.566 67.1309 389.299 67.2871 390.138 67.2871C391.408 67.2871 392.511 67.0332 393.449 66.5254C394.386 66.0176 395.109 65.3926 395.617 64.6504C396.144 63.9082 396.418 63.2051 396.437 62.541L398.664 66.1152C398.351 66.916 397.922 67.7461 397.375 68.6055C396.847 69.4648 396.174 70.2754 395.353 71.0371C394.533 71.7793 393.547 72.3945 392.394 72.8828C391.242 73.3516 389.875 73.5859 388.293 73.5859C386.281 73.5859 384.455 73.1855 382.814 72.3848C381.193 71.5645 379.904 70.4414 378.947 69.0156C378.01 67.5703 377.541 65.9297 377.541 64.0938C377.541 62.4336 377.853 60.959 378.478 59.6699C379.103 58.3809 380.021 57.2969 381.232 56.418C382.463 55.5195 383.996 54.8457 385.832 54.3965C387.668 53.9277 389.797 53.6934 392.219 53.6934H397.111ZM419.42 48.0684V73H410.982V41.3008H418.892L419.42 48.0684ZM418.189 56.0371H415.904C415.904 53.6934 416.207 51.584 416.812 49.709C417.418 47.8145 418.267 46.2031 419.361 44.875C420.455 43.5273 421.754 42.502 423.257 41.7988C424.781 41.0762 426.48 40.7148 428.355 40.7148C429.839 40.7148 431.197 40.9297 432.427 41.3594C433.658 41.7891 434.712 42.4727 435.591 43.4102C436.49 44.3477 437.173 45.5879 437.642 47.1309C438.13 48.6738 438.375 50.5586 438.375 52.7852V73H429.879V52.7559C429.879 51.3496 429.683 50.2559 429.293 49.4746C428.902 48.6934 428.326 48.1465 427.564 47.834C426.822 47.502 425.904 47.3359 424.81 47.3359C423.677 47.3359 422.691 47.5605 421.851 48.0098C421.031 48.459 420.347 49.084 419.8 49.8848C419.273 50.666 418.873 51.584 418.599 52.6387C418.326 53.6934 418.189 54.8262 418.189 56.0371ZM453.388 27.9707V73H444.951V27.9707H453.388ZM473.369 41.3008L459.599 57.0039L452.216 64.4746L449.14 58.3809L454.999 50.9395L463.232 41.3008H473.369ZM464.609 73L455.234 58.3516L461.064 53.2539L474.335 73H464.609ZM491.165 73.5859C488.704 73.5859 486.497 73.1953 484.544 72.4141C482.591 71.6133 480.931 70.5098 479.564 69.1035C478.216 67.6973 477.181 66.0664 476.458 64.2109C475.736 62.3359 475.374 60.3438 475.374 58.2344V57.0625C475.374 54.6602 475.716 52.4629 476.4 50.4707C477.083 48.4785 478.06 46.75 479.329 45.2852C480.618 43.8203 482.181 42.6973 484.017 41.916C485.853 41.1152 487.923 40.7148 490.228 40.7148C492.474 40.7148 494.466 41.0859 496.204 41.8281C497.943 42.5703 499.398 43.625 500.57 44.9922C501.761 46.3594 502.659 48 503.265 49.9141C503.87 51.8086 504.173 53.918 504.173 56.2422V59.7578H478.978V54.1328H495.882V53.4883C495.882 52.3164 495.667 51.2715 495.238 50.3535C494.827 49.416 494.202 48.6738 493.363 48.127C492.523 47.5801 491.449 47.3066 490.14 47.3066C489.027 47.3066 488.07 47.5508 487.269 48.0391C486.468 48.5273 485.814 49.2109 485.306 50.0898C484.818 50.9688 484.447 52.0039 484.193 53.1953C483.958 54.3672 483.841 55.6562 483.841 57.0625V58.2344C483.841 59.5039 484.017 60.6758 484.368 61.75C484.74 62.8242 485.257 63.752 485.921 64.5332C486.605 65.3145 487.425 65.9199 488.382 66.3496C489.359 66.7793 490.462 66.9941 491.693 66.9941C493.216 66.9941 494.632 66.7012 495.941 66.1152C497.269 65.5098 498.411 64.6016 499.368 63.3906L503.47 67.8438C502.806 68.8008 501.898 69.7188 500.745 70.5977C499.613 71.4766 498.245 72.1992 496.644 72.7656C495.042 73.3125 493.216 73.5859 491.165 73.5859ZM517.575 48.2148V73H509.138V41.3008H517.077L517.575 48.2148ZM527.126 41.0957L526.98 48.918C526.569 48.8594 526.071 48.8105 525.485 48.7715C524.919 48.7129 524.401 48.6836 523.933 48.6836C522.741 48.6836 521.706 48.8398 520.827 49.1523C519.968 49.4453 519.245 49.8848 518.659 50.4707C518.093 51.0566 517.663 51.7695 517.37 52.6094C517.097 53.4492 516.941 54.4062 516.901 55.4805L515.202 54.9531C515.202 52.9023 515.407 51.0176 515.818 49.2988C516.228 47.5605 516.823 46.0469 517.605 44.7578C518.405 43.4688 519.382 42.4727 520.534 41.7695C521.687 41.0664 523.005 40.7148 524.489 40.7148C524.958 40.7148 525.437 40.7539 525.925 40.832C526.413 40.8906 526.814 40.9785 527.126 41.0957Z" fill="#0E3F71"/>
</svg>
